<svg height="100%" viewBox="0 0 56 56" width="100%" xmlns="http://www.w3.org/2000/svg">
  <g id="024---Money-Bag" transform="translate(0 -1)">
    <path id="Shape" d="m14.28 34.62c1.0281935.3735685 1.9877364.914156 2.84 1.6 1.4448001 1.1480513 3.234615 1.7751911 5.08 1.78h5.23c3.818 0 6.826 3.669 5.62 7 1.441 0-.571.533 16.02-4.99.6936729-1.1143372 1.0125563-2.4214085.91-3.73-1.054-8.269-4.658-14.962-8.3-22.489 2.83.557 8.848 2.172 8.279 5.013-.0757392.3526255.0442739.7187143.3140768.9580624.269803.2393482.6475875.3148666.9886703.1976333.3410829-.1172333.5926104-.4090519.6582529-.7636957.729-3.646-3.479-5.663-7.036-6.7 3.557-1.033 7.765-3.05 7.036-6.7-.1148093-.53452765-.63761-.87777044-1.173722-.77060272s-.8867823.62501562-.787278 1.16260272c.6 2.982-6.062 4.647-9.059 5.156-.7818786-3.59698551.0353547-7.35625881 2.24-10.304-1.63-.24-4.58.44-8.28 1.86-1.8405763.70996415-3.8794237.70996415-5.72 0-3.7-1.42-6.65-2.09-8.3-1.91 2.42 3.11 3.12 7.21 1.99 11.61-.115 1.259-6.825 11.807-8.55 22.02zm22.85-29.11c.1637971-.33215905.4977574-.5465922.8679525-.55730505.370195-.01071285.7159968.18404908.898728.50618015.1827312.32213108.1724654.71887495-.0266805 1.0311249-.95 1.71-.27 5.26.01 5.9.2063948.5001763-.0128292 1.0745434-.5 1.31-.2342511.1157229-.5052541.1321592-.7517738.045595s-.4477518-.2688235-.5582262-.505595c-.29-.6-1.41-5.09.06-7.73zm-6.13 1.49c0-.55228475.4477153-1 1-1s1 .44771525 1 1v6c0 .5522847-.4477153 1-1 1s-1-.4477153-1-1zm-5.49-1.87c.4805947-.26973103 1.0888284-.09978339 1.36.38 1.47 2.64.35 7.13.06 7.73-.1131267.2395347-.3172735.4239382-.5670414.512202s-.5244491.0730702-.7629586-.042202c-.4959259-.2384976-.7059653-.8328642-.47-1.33.286-.623.95-4.18 0-5.89-.269731-.48059474-.0997834-1.0888284.38-1.36zm3.49 13.36v-1.49c0-.5522847.4477153-1 1-1s1 .4477153 1 1v1.06c.6648291-.0700004 1.3351709-.0700004 2 0v-1.06c0-.5522847.4477153-1 1-1s1 .4477153 1 1v1.49c2.42.81 4 2.55 4 4.51 0 .5522847-.4477153 1-1 1s-1-.4477153-1-1c-.1637252-1.105152-.9381076-2.022795-2-2.37v5.85c5.311 1.778 5.342 7.242 0 9.03v1.49c0 .5522847-.4477153 1-1 1s-1-.4477153-1-1v-1.06c-.6642665.0800032-1.3357335.0800032-2 0v1.06c0 .5522847-.4477153 1-1 1s-1-.4477153-1-1v-1.49c-2.42-.81-4-2.55-4-4.51 0-.5522847.4477153-1 1-1s1 .4477153 1 1c.1637252 1.105152.9381076 2.022795 2 2.37v-5.85c-5.311-1.778-5.342-7.242 0-9.03z"/>
    <rect id="Rectangle-path" height="23" rx="1" width="7" y="34"/>
    <path id="Shape" d="m55.65 41.19c-.02-.02-.03-.05-.05-.07-.457245-.5607431-1.2139193-.7797804-1.9-.55l-18.5 6.17c-1.149.383-1.245.26-10.48.26-1.5797578-.0009418-3.1245213.4652706-4.44 1.34l-.72.49c-.4583963.3092795-1.0807205.1883963-1.39-.27s-.1883963-1.0807205.27-1.39l.73-.49c1.6440609-1.0946059 3.5748804-1.6790702 5.55-1.68h6.08c.635867-.8496934.6951318-1.9994303.15-2.91l-.09-.14c-.7190363-1.2098174-2.0226371-1.9509315-3.43-1.95h-5.23c-2.2968089-.005702-4.5241669-.7880967-6.32-2.22-.8803262-.6984912-1.894556-1.2090096-2.98-1.5-1.2791064-.2849593-2.5933049-.379312-3.9-.28v20.0000009l24.3-.0000009c1.0999651.0005853 2.1790528-.3003141 3.12-.87l18.74-11.41c.4214986-.2529679.7156467-.6731292.8091176-1.155744s-.0225417-.9822144-.3191176-1.374256z"/>
    <path id="Shape" d="m35 28.63v4.74c2.651-1.239 2.669-3.493 0-4.74z"/>
    <path id="Shape" d="m33 33.93v-5.86c-.932-.113-1.173-.03-2-.13v6c.6643822.0816814 1.3364678.078321 2-.01z"/>
    <path id="Shape" d="m33 26.06v-6c-.6643822-.0816814-1.3364678-.078321-2 .01v5.86c.93.113 1.178.03 2 .13z"/>
    <path id="Shape" d="m29 20.63c-2.651 1.239-2.669 3.493 0 4.74z"/>
  </g>
</svg>
