<svg id="Layer_1" enable-background="new 0 0 512 512" height="512" viewBox="0 0 512 512" width="512" xmlns="http://www.w3.org/2000/svg"><g><path d="m255 136.096c8.271 0 15-6.729 15-15s-6.729-15-15-15-15 6.729-15 15 6.729 15 15 15z"/><path d="m235 228.096h42v43h-42z"/><path d="m74.102 177.701c7.041 4.36 16.288 2.189 20.65-4.854l16.198-26.154v124.403h94.05v-58c0-8.284 6.716-15 15-15h72c8.284 0 15 6.716 15 15v58h94.05v-124.403l16.198 26.153c2.839 4.583 7.744 7.104 12.767 7.104 2.694 0 5.424-.727 7.884-2.25 7.043-4.362 9.216-13.608 4.854-20.65l-57.306-92.525c-1.482-2.395-3.61-4.323-6.138-5.565l-116.695-57.327c-4.172-2.05-9.057-2.049-13.228 0l-116.695 57.327c-2.528 1.242-4.655 3.17-6.138 5.565l-57.305 92.525c-4.363 7.043-2.189 16.288 4.854 20.651zm180.898-101.606c24.813 0 45 20.187 45 45s-20.187 45-45 45-45-20.187-45-45 20.187-45 45-45z"/><path d="m0 422.095v30h147.079c5.436-10.317 11.378-20.327 17.795-30z"/><path d="m215.307 362.095h-215.307v30h187.188c8.766-10.54 18.155-20.558 28.119-30z"/><path d="m251.477 332.188c5.156-3.708 10.418-7.288 15.79-10.722 11.834-7.564 24.064-14.357 36.617-20.371h-288.884c-8.284 0-15 6.716-15 15v16h249.846c.551 0 1.095.034 1.631.093z"/><path d="m0 496.904c0 8.284 6.716 15 15 15h113.69c.768-10.084 2.646-20.104 5.574-29.809h-134.264z"/><path d="m497 301.095h-91.764c-100.559 15.382-190.098 79.955-235.8 173.189-5.767 11.765-9.373 24.601-10.633 37.62h338.197c8.284 0 15-6.716 15-15v-180.81c0-8.284-6.716-14.999-15-14.999z"/></g></svg>