<svg id="Capa_1" enable-background="new 0 0 512 512" height="512" viewBox="0 0 512 512" width="512" xmlns="http://www.w3.org/2000/svg"><g><circle cx="61" cy="196" r="60"/><path d="m375.092 117.396c0-40.708-28.755-71.396-66.885-71.396-19.233 0-37.266 8.555-52.207 24.434-14.941-15.879-32.974-24.434-52.207-24.434-38.13 0-66.885 30.688-66.885 71.396 0 42.51 34.175 71.353 81.489 111.255 29.255 24.724 27.76 23.747 37.603 32.212 11.97-10.296 6.551-5.969 37.603-32.212 47.314-39.902 81.489-68.745 81.489-111.255z"/><circle cx="451" cy="196" r="60"/><path d="m467 286h-46c-37.63 0-69.712-22.766-83.156-55.829-12.779 11.252-23.282 20.021-27.206 23.353-6.174 5.228-12.869 10.944-19.587 16.721 45.08 78.325 126.068 75.119 129.949 76.385v119.37h91v-135c0-24.814-20.186-45-45-45z"/><path d="m91 346.63c4.174-1.361 84.685 2.268 129.952-76.392-6.72-5.771-33.679-28.517-46.796-40.069-13.444 33.065-45.526 55.831-83.156 55.831h-46c-24.814 0-45 20.186-45 45v135h91z"/></g></svg>