<svg height="100%" viewBox="0 0 54 56" width="100%" xmlns="http://www.w3.org/2000/svg">
  <g fill="none" fill-rule="evenodd">
    <g id="010---Grapes-and-Bottle" fill="rgb(0,0,0)" fill-rule="nonzero" transform="translate(0 -1)">
      <path id="Rectangle-path" d="m43 1h4v3h-4z"/>
      <path id="Shape" d="m53.271 32.175c-.4860372-1.9011574-1.2079748-3.7340525-2.149-5.456-2.0452587-3.7553877-3.1185079-7.9627858-3.122-12.239v-3.48h-1c-.5522847 0-1-.4477153-1-1 0-.55228475.4477153-1 1-1h1.724c.027-.008.048-.024.076-.03.2887731-.05782246.554136-.19937254.763-.407.4309804-.429075.5602357-1.07591153.3272494-1.63766488s-.7820999-.9272375-1.3902494-.92533512h-7c-.7706297-.00077448-1.416466.58252269-1.4939133 1.34925118s.4386955 1.46739729 1.1939133 1.62074882c.028.006.05.022.076.03h1.724c.5522847 0 1 .44771525 1 1 0 .5522847-.4477153 1-1 1h-1v3.48c-.0020217 2.1291871-.2673691 4.2499509-.79 6.314-.5276001 2.0643942-1.3109978 4.0548022-2.332 5.925-1.7203099 3.165167-2.6941257 6.6817809-2.847 10.281h17.938c-.0679676-1.6278861-.3018453-3.2445905-.698-4.825z"/>
      <path id="Shape" d="m36 54c0 1.6568542 1.3431458 3 3 3h12c1.6568542 0 3-1.3431458 3-3v-3h-18z"/>
      <path id="Shape" d="m36 39v10h18v-10zm11 8h-4c-.5522847 0-1-.4477153-1-1s.4477153-1 1-1h4c.5522847 0 1 .4477153 1 1s-.4477153 1-1 1zm0-4h-4c-.5522847 0-1-.4477153-1-1s.4477153-1 1-1h4c.5522847 0 1 .4477153 1 1s-.4477153 1-1 1z"/>
      <path id="Shape" d="m15 42c2.0223112 0 3.8454927-1.2182109 4.6193977-3.0865828.773905-1.868372.3461262-4.0189611-1.0838638-5.4489511s-3.5805791-1.8577688-5.4489511-1.0838638c-1.8683719.773905-3.0865828 2.5970865-3.0865828 4.6193977.0033061 2.7600532 2.2399468 4.9966939 5 5zm-2-6c.5522847 0 1 .4477153 1 1s.4477153 1 1 1 1 .4477153 1 1-.4477153 1-1 1c-1.6568542 0-3-1.3431458-3-3 0-.5522847.4477153-1 1-1z"/>
      <path id="Shape" d="m9.223 25.672c-.90595606-.7525304-2.0452769-1.1668289-3.223-1.172-1.93552526-.0053865-3.6992854 1.1098692-4.52427562 2.8607771-.82499022 1.7509078-.56212815 3.8210645.67427562 5.3102229 2.24866229-1.5054961 5.16812932-1.5636901 7.475-.149.2655219-.3163556.5579482-.6091165.874-.875.3260507-.6689845.4972854-1.4027987.501-2.147-.0015503-1.4750176-.6513465-2.8748036-1.777-3.828z"/>
      <path id="Shape" d="m15 23c-1.4806692-.0063763-2.8853746.6548344-3.824 1.8 1.1706494 1.2857433 1.8208558 2.9611654 1.824 4.7-.0006503.2700859-.0173464.5398945-.05.808 1.3358144-.4106815 2.7641856-.4106815 4.1 0-.0326536-.2681055-.0493497-.5379141-.05-.808.0034451-1.7385933.6532111-3.4137992 1.823-4.7-.9384944-1.1447772-2.3427124-1.8059314-3.823-1.8z"/>
      <path id="Shape" d="m8 37c-.00028327-.954062.19578362-1.8979743.576-2.773-1.87525981-1.0785621-4.22499224-.8683292-5.879.526-1.12562407.9839061-1.74763001 2.4228839-1.69310758 3.9169148.05452242 1.4940308.77976082 2.8838429 1.97410758 3.7830852 1.13664538-1.9152131 3.11508403-3.1770197 5.331-3.4-.20491365-.6650698-.30906882-1.357078-.309-2.053z"/>
      <path id="Shape" d="m28.742 1.195c-.3439046-.19785669-.7529507-.24903251-1.135-.142-7.279 1.98-16.416 1.23-21.24.6h-.041c-1.909-.238-3.309-.485-3.974-.611-.019 0-.038-.006-.056-.009-.53462495-.12959563-1.09729733.04385247-1.46617154.45195869s-.4847627.98538804-.30197396 1.5042398c.18278873.51885175.63492541.89602131 1.1781455.98280151l.094.017c1.187.223 2.485.426 3.857.6.07296576.00974744.14469732.02717754.214.052 3.871 1.405 5.588 5.638 6.267 8.036.7616277 2.776876 1.2097559 5.6303388 1.336 8.507.9852092-.2399463 2.0132131-.243373 3-.01-.0882451-2.3064472-.3220436-4.6050207-.7-6.882l-.088-.464c-.399191-2.4640773-1.2541208-4.83217515-2.521-6.983-.2072117-.31167845-.2230321-.71297637-.041-1.04.1749958-.33413686.5294443-.53483453.906-.513 4.8300906.25578889 9.6715865-.19803818 14.37-1.347.3841176-.10247964.711155-.35460103.908-.7.4051176-.72099931.1539518-1.63376173-.563-2.046z"/>
      <path id="Shape" d="m27.3 34.751c-1.6531513-1.3929618-4.0018499-1.600882-5.874-.52.6602067 1.5247307.7541839 3.235116.265 4.823 2.2155922.2239129 4.1936455 1.4854738 5.331 3.4 1.193957-.8997095 1.9186265-2.2897794 1.9725665-3.7838011s-.5685996-2.9327311-1.6945665-3.9161989z"/>
      <path id="Shape" d="m24 24.5c-1.1817181.0058325-2.3245089.4230643-3.232 1.18-1.1209447.9524974-1.7672956 2.3490249-1.768 3.82.003403.7441242.174295 1.4779345.5 2.147.3173075.266973.6107505.5610852.877.879 2.3042712-1.4186419 5.2245026-1.3619725 7.472.145 1.2362866-1.4890194 1.4992236-3.5589426.6744862-5.3097685s-2.5881417-2.8662285-4.5234862-2.8612315z"/>
      <path id="Shape" d="m20.72 41.021c-1.0039735 1.4278235-2.5044469 2.4298031-4.208 2.81-.1999175.3987392-.3416905.8240581-.421 1.263 2.9923144.4753102 5.3391752 2.8217674 5.815 5.814 2.3686489-.4364194 4.0895525-2.499486 4.094-4.908.0020796-.5998753-.1070995-1.1949353-.322-1.755-.7681387-2.0446026-2.7775779-3.3512649-4.958-3.224z"/>
      <path id="Shape" d="m15 47c-2.7614237 0-5 2.2385763-5 5s2.2385763 5 5 5 5-2.2385763 5-5c-.0033061-2.7600532-2.2399468-4.9966939-5-5zm0 8c-1.6568542 0-3-1.3431458-3-3 0-.5522847.4477153-1 1-1s1 .4477153 1 1 .4477153 1 1 1 1 .4477153 1 1-.4477153 1-1 1z"/>
      <path id="Shape" d="m13.909 45.094c-.0793095-.4389419-.2210825-.8642608-.421-1.263-1.703322-.3801246-3.2037125-1.3816923-4.208-2.809-2.17709264-.1295527-4.18501376 1.1731236-4.954 3.214-.21731878.5626391-.32787301 1.1608527-.326 1.764.00444752 2.408514 1.72535111 4.4715806 4.094 4.908.4758248-2.9922326 2.8226856-5.3386898 5.815-5.814z"/>
    </g>
  </g>
</svg>
