<?xml version="1.0" encoding="UTF-8" standalone="no"?>
<!DOCTYPE svg PUBLIC "-//W3C//DTD SVG 1.1//EN" "http://www.w3.org/Graphics/SVG/1.1/DTD/svg11.dtd">
<svg width="100%" height="100%" viewBox="0 0 1200 630" version="1.1" xmlns="http://www.w3.org/2000/svg" xmlns:xlink="http://www.w3.org/1999/xlink" xml:space="preserve" xmlns:serif="http://www.serif.com/" style="fill-rule:evenodd;clip-rule:evenodd;stroke-linejoin:round;stroke-miterlimit:2;">
    <g transform="matrix(0.747819,0,0,0.747819,-6.40448,-25.7282)">
        <rect x="-22.98" y="-174.175" width="1638.66" height="1143.37" style="fill:url(#_Linear1);"/>
        <path d="M431.918,269.027C431.918,269.027 534.094,232.821 562.529,255.14C562.529,255.14 579.888,228.688 603.532,225.876C627.174,223.066 635.605,237.12 635.605,237.12C635.605,237.12 662.223,209.179 672.639,207.856C683.055,206.533 692.81,230.175 692.81,230.175C692.81,230.175 712.978,193.969 749.02,186.858C785.062,179.915 811.019,228.027 811.019,228.027C811.019,228.027 829.536,210.666 840.779,213.312C852.021,215.957 854.005,245.385 854.005,245.385C854.005,245.385 891.865,221.743 935.347,269.027L431.918,269.027Z" style="fill:white;fill-rule:nonzero;"/>
        <g opacity="0.6">
            <path d="M347.28,286.388C347.28,286.388 1043.29,465.769 1615.48,465.769L1615.48,386.743C1615.67,386.743 1114.62,404.268 347.28,286.388Z" style="fill:rgb(229,237,248);fill-rule:nonzero;"/>
            <path d="M-3.035,292.007C-3.035,292.007 523.205,533.554 1615.67,609.276L1615.67,628.785C1615.67,628.785 591.845,619.195 -3.035,398.149L-3.035,292.007Z" style="fill:rgb(229,237,248);fill-rule:nonzero;"/>
        </g>
        <g>
            <path d="M721.41,689.625C721.41,689.625 914.515,537.522 994.866,625.147C994.866,625.147 1017.35,567.281 1057.03,552.402C1096.71,537.522 1131.43,592.412 1131.43,592.412C1131.43,592.412 1153.58,514.376 1241.7,501.15C1329.82,487.924 1371.15,581.996 1371.15,581.996C1371.15,581.996 1392.98,503.465 1473.66,468.084C1554.34,432.704 1615.68,482.302 1615.68,482.302L1615.68,689.625L721.41,689.625Z" style="fill:white;fill-rule:nonzero;"/>
            <path d="M1488.37,603.489C1488.37,603.489 1486.72,553.891 1425.55,572.572C1364.37,591.254 1326.35,661.353 1326.35,661.353C1326.35,661.353 1306.51,611.755 1228.8,610.101C1151.1,608.448 1071.74,661.353 1071.74,661.353C1010.9,613.408 912.033,658.874 859.458,689.625L1615.67,689.625L1615.67,545.624C1509.86,510.904 1488.37,603.489 1488.37,603.489Z" style="fill:rgb(241,242,242);fill-rule:nonzero;"/>
        </g>
        <g>
            <path d="M859.792,315.154L848.714,315.154L838.298,846.854L870.207,846.854L859.792,315.154Z" style="fill:rgb(241,242,242);fill-rule:nonzero;"/>
            <path d="M859.792,315.154L856.982,315.154L861.94,846.854L870.207,846.854L859.792,315.154Z" style="fill:rgb(230,231,232);fill-rule:nonzero;"/>
            <g>
                <g>
                    <g>
                        <path d="M849.211,311.186L849.211,107.335C854.831,107.335 859.461,111.634 859.956,117.255L872.687,269.855C873.184,275.31 872.192,280.766 870.041,285.726L858.966,311.186L849.211,311.186Z" style="fill:rgb(241,242,242);fill-rule:nonzero;"/>
                        <path d="M854.336,286.388L854.336,168.672C854.336,168.672 860.948,276.797 854.336,286.388Z" style="fill:rgb(230,231,232);fill-rule:nonzero;"/>
                    </g>
                    <g>
                        <path d="M854.336,319.784L677.764,421.793C674.954,416.997 676.275,410.715 680.905,407.573L806.722,320.115C811.185,316.974 816.31,314.99 821.765,314.493L849.376,311.352L854.336,319.784Z" style="fill:rgb(241,242,242);fill-rule:nonzero;"/>
                        <path d="M830.364,327.885L728.355,386.743C728.355,386.743 818.625,326.893 830.364,327.885Z" style="fill:rgb(230,231,232);fill-rule:nonzero;"/>
                    </g>
                    <g>
                        <path d="M859.296,311.186L1035.87,413.195C1033.06,417.989 1026.94,419.973 1021.98,417.494L883.433,352.188C878.473,349.873 874.176,346.402 871.033,341.939L854.5,319.618L859.296,311.186Z" style="fill:rgb(241,242,242);fill-rule:nonzero;"/>
                        <path d="M878.142,327.885L980.151,386.743C980.151,386.743 883.269,338.465 878.142,327.885Z" style="fill:rgb(230,231,232);fill-rule:nonzero;"/>
                    </g>
                </g>
                <g>
                    <path d="M864.752,298.291C861.776,296.306 858.138,294.984 854.17,294.984C852.516,294.984 850.698,295.314 849.211,295.645L849.211,311.021L859.13,311.021L864.752,298.291Z" style="fill:rgb(230,231,232);fill-rule:nonzero;"/>
                    <path d="M835.653,312.839L835.653,313.831C835.653,319.122 837.803,323.917 841.441,327.388L854.336,319.948L849.376,311.352L835.653,312.839Z" style="fill:rgb(230,231,232);fill-rule:nonzero;"/>
                    <path d="M859.296,311.186L854.336,319.784L862.271,330.531C867.067,328.216 870.869,323.917 872.192,318.625L859.296,311.186Z" style="fill:rgb(230,231,232);fill-rule:nonzero;"/>
                </g>
                <circle cx="854.336" cy="313.667" r="12.895" style="fill:rgb(230,231,232);"/>
                <circle cx="854.336" cy="313.667" r="12.234" style="fill:rgb(241,242,242);"/>
                <circle cx="854.336" cy="313.667" r="6.778" style="fill:rgb(230,231,232);"/>
                <path d="M853.675,306.889C850.368,307.219 847.722,309.863 847.391,313.17C847.722,315.982 850.037,318.295 853.013,318.295C856.154,318.295 858.635,315.816 858.635,312.675C858.799,309.699 856.485,307.219 853.675,306.889Z" style="fill:rgb(241,242,242);fill-rule:nonzero;"/>
                <path d="M855.659,308.376C855.162,308.211 854.667,308.211 854.336,308.211C851.193,308.211 848.714,310.691 848.714,313.831C848.714,314.328 848.714,314.823 848.881,315.154C849.376,311.517 852.186,308.871 855.659,308.376Z" style="fill:white;fill-rule:nonzero;"/>
            </g>
        </g>
        <g>
            <path d="M1163.5,328.38L1153.25,328.38L1143.66,816.598L1172.92,816.598L1163.5,328.38Z" style="fill:rgb(241,242,242);fill-rule:nonzero;"/>
            <path d="M1163.5,328.38L1160.86,328.38L1165.48,816.598L1172.92,816.598L1163.5,328.38Z" style="fill:rgb(230,231,232);fill-rule:nonzero;"/>
            <g>
                <g>
                    <g>
                        <path d="M1153.75,324.744L1153.75,137.426C1158.87,137.426 1163.17,141.394 1163.67,146.519L1175.41,286.718C1175.9,291.677 1175.08,296.803 1173.09,301.267L1163.01,324.578L1153.75,324.578L1153.75,324.744Z" style="fill:rgb(241,242,242);fill-rule:nonzero;"/>
                        <path d="M1158.38,301.928L1158.38,193.803C1158.38,193.803 1164.5,293.166 1158.38,301.928Z" style="fill:rgb(230,231,232);fill-rule:nonzero;"/>
                    </g>
                    <g>
                        <path d="M1158.38,332.679L996.193,426.256C993.547,421.793 994.87,416.171 999.169,413.195L1114.73,332.845C1118.87,330.034 1123.66,328.216 1128.62,327.554L1153.92,324.578L1158.38,332.679Z" style="fill:rgb(241,242,242);fill-rule:nonzero;"/>
                        <path d="M1136.39,340.119L1042.81,394.183C1042.65,394.183 1125.64,339.127 1136.39,340.119Z" style="fill:rgb(230,231,232);fill-rule:nonzero;"/>
                    </g>
                    <g>
                        <path d="M1162.84,324.744L1325.03,418.319C1322.38,422.785 1316.93,424.603 1312.3,422.288L1184.99,362.438C1180.53,360.289 1176.56,357.149 1173.59,353.014L1158.38,332.515L1162.84,324.744Z" style="fill:rgb(241,242,242);fill-rule:nonzero;"/>
                        <path d="M1180.37,340.119L1273.95,394.183C1273.95,394.183 1185,349.873 1180.37,340.119Z" style="fill:rgb(230,231,232);fill-rule:nonzero;"/>
                    </g>
                </g>
                <g>
                    <path d="M1167.96,312.839C1165.15,311.021 1161.84,309.863 1158.37,309.863C1156.72,309.863 1155.23,310.029 1153.74,310.524L1153.74,324.744L1162.84,324.744L1167.96,312.839Z" style="fill:rgb(230,231,232);fill-rule:nonzero;"/>
                    <path d="M1141.18,326.231L1141.18,327.057C1141.18,331.853 1143.16,336.317 1146.47,339.457L1158.37,332.679L1153.75,324.744L1141.18,326.231Z" style="fill:rgb(230,231,232);fill-rule:nonzero;"/>
                    <path d="M1162.84,324.744L1158.21,332.679L1165.65,342.6C1170.12,340.449 1173.42,336.481 1174.75,331.687L1162.84,324.744Z" style="fill:rgb(230,231,232);fill-rule:nonzero;"/>
                </g>
                <circle cx="1158.38" cy="327.057" r="11.903" style="fill:rgb(230,231,232);"/>
                <circle cx="1158.38" cy="327.057" r="11.242" style="fill:rgb(241,242,242);"/>
                <circle cx="1158.38" cy="327.057" r="6.283" style="fill:rgb(230,231,232);"/>
                <path d="M1157.88,320.776C1154.9,321.107 1152.42,323.422 1152.26,326.396C1152.59,329.041 1154.74,331.026 1157.38,331.026C1160.19,331.026 1162.67,328.711 1162.67,325.736C1162.51,323.255 1160.52,321.107 1157.88,320.776Z" style="fill:rgb(241,242,242);fill-rule:nonzero;"/>
                <path d="M1159.7,322.099C1159.37,321.932 1158.87,321.932 1158.38,321.932C1155.57,321.932 1153.25,324.247 1153.25,327.057C1153.25,327.554 1153.25,327.885 1153.42,328.38C1153.75,325.075 1156.39,322.594 1159.7,322.099Z" style="fill:white;fill-rule:nonzero;"/>
            </g>
        </g>
        <g>
            <path d="M1419.43,352.519L1410.17,352.519L1401.41,800.891L1428.19,800.891L1419.43,352.519Z" style="fill:rgb(241,242,242);fill-rule:nonzero;"/>
            <path d="M1419.43,352.519L1417.12,352.519L1421.25,800.891L1428.19,800.891L1419.43,352.519Z" style="fill:rgb(230,231,232);fill-rule:nonzero;"/>
            <g>
                <g>
                    <g>
                        <path d="M1410.67,349.212L1410.67,177.27C1415.46,177.27 1419.27,180.907 1419.76,185.537L1430.51,314.328C1430.84,318.956 1430.18,323.586 1428.36,327.719L1419.1,349.212L1410.67,349.212Z" style="fill:rgb(241,242,242);fill-rule:nonzero;"/>
                        <path d="M1414.8,328.216L1414.8,228.852C1414.8,229.019 1420.42,320.115 1414.8,328.216Z" style="fill:rgb(230,231,232);fill-rule:nonzero;"/>
                    </g>
                    <g>
                        <path d="M1414.8,356.487L1265.84,442.458C1263.52,438.326 1264.68,433.199 1268.48,430.389L1374.63,356.652C1378.43,354.006 1382.73,352.354 1387.36,351.857L1410.5,349.212L1414.8,356.487Z" style="fill:rgb(241,242,242);fill-rule:nonzero;"/>
                        <path d="M1394.63,363.265L1308.66,412.864C1308.66,412.864 1384.71,362.438 1394.63,363.265Z" style="fill:rgb(230,231,232);fill-rule:nonzero;"/>
                    </g>
                    <g>
                        <path d="M1418.93,349.212L1567.89,435.183C1565.58,439.318 1560.45,440.805 1556.15,438.821L1439.27,383.767C1435.13,381.782 1431.5,378.806 1428.68,375.169L1414.8,356.321L1418.93,349.212Z" style="fill:rgb(241,242,242);fill-rule:nonzero;"/>
                        <path d="M1434.97,363.265L1520.94,412.864C1520.94,412.864 1439.27,372.192 1434.97,363.265Z" style="fill:rgb(230,231,232);fill-rule:nonzero;"/>
                    </g>
                </g>
                <g>
                    <path d="M1423.73,338.301C1421.25,336.647 1418.11,335.489 1414.8,335.489C1413.31,335.489 1411.99,335.655 1410.67,336.15L1410.67,349.212L1418.94,349.212L1423.73,338.301Z" style="fill:rgb(230,231,232);fill-rule:nonzero;"/>
                    <path d="M1399.1,350.535L1399.1,351.362C1399.1,355.826 1400.92,359.794 1404.06,362.768L1414.97,356.487L1410.84,349.212L1399.1,350.535Z" style="fill:rgb(230,231,232);fill-rule:nonzero;"/>
                    <path d="M1418.93,349.212L1414.8,356.487L1421.58,365.58C1425.71,363.596 1428.68,359.959 1430.01,355.495L1418.93,349.212Z" style="fill:rgb(230,231,232);fill-rule:nonzero;"/>
                </g>
                <circle cx="1414.8" cy="351.362" r="10.911" style="fill:rgb(230,231,232);"/>
                <circle cx="1414.8" cy="351.362" r="10.25" style="fill:rgb(241,242,242);"/>
                <circle cx="1414.8" cy="351.362" r="5.786" style="fill:rgb(230,231,232);"/>
                <path d="M1414.31,345.574C1411.5,345.741 1409.35,348.055 1409.02,350.865C1409.35,353.345 1411.34,355.164 1413.82,355.164C1416.46,355.164 1418.61,353.014 1418.61,350.37C1418.61,347.889 1416.79,345.905 1414.31,345.574Z" style="fill:rgb(241,242,242);fill-rule:nonzero;"/>
                <path d="M1415.96,346.733C1415.63,346.566 1415.13,346.566 1414.8,346.566C1412.16,346.566 1410.01,348.717 1410.01,351.362C1410.01,351.693 1410.01,352.188 1410.17,352.519C1410.67,349.543 1412.98,347.228 1415.96,346.733Z" style="fill:white;fill-rule:nonzero;"/>
            </g>
        </g>
        <g>
            <path d="M230.053,815.071L230.053,746.789C230.053,746.789 1089.43,620.146 1621.96,620.146L1621.96,814.905L230.053,814.905L230.053,815.071Z" style="fill:rgb(56,116,56);fill-rule:nonzero;"/>
            <g>
                <path d="M355.209,815.071C395.217,766.793 431.92,735.547 462.176,715.377C433.079,719.179 406.13,722.65 381.66,725.957C337.518,754.395 301.642,788.617 276.842,815.235L355.209,815.235L355.209,815.071Z" style="fill:rgb(67,138,67);fill-rule:nonzero;"/>
                <path d="M712.98,684.957C685.536,688.098 658.588,691.238 632.631,694.214C571.294,729.926 522.19,779.524 491.604,814.905L574.434,814.905C628.332,745.136 676.774,706.448 712.98,684.957Z" style="fill:rgb(67,138,67);fill-rule:nonzero;"/>
                <path d="M957.006,659.329C930.057,661.975 903.109,664.62 876.657,667.266C801.102,708.102 741.252,772.251 706.699,814.905L793.993,814.905C859.296,725.132 917.329,680.989 957.006,659.329Z" style="fill:rgb(67,138,67);fill-rule:nonzero;"/>
                <path d="M1191.11,639.16C1164.66,641.145 1138.04,643.293 1111.42,645.442C1026.11,690.907 958.823,766.96 921.953,815.071L1013.71,815.071C1085.47,711.244 1149.12,662.141 1191.11,639.16Z" style="fill:rgb(67,138,67);fill-rule:nonzero;"/>
                <path d="M1413.81,625.438C1387.85,626.594 1361.57,627.917 1334.95,629.57C1245.34,680.161 1175.07,763.819 1137.54,815.071L1233.77,815.071C1305.52,706.615 1369.5,652.386 1413.81,625.438Z" style="fill:rgb(67,138,67);fill-rule:nonzero;"/>
                <path d="M1621.96,620.146C1597.65,620.146 1572.53,620.477 1546.9,620.974C1458.61,677.185 1389.84,763.158 1353.46,815.071L1454.15,815.071C1518.46,713.723 1576.99,655.693 1621.79,622.628L1621.79,620.146L1621.96,620.146Z" style="fill:rgb(67,138,67);fill-rule:nonzero;"/>
            </g>
        </g>
        <g>
            <path d="M1615.68,946.093L1615.68,866.621C1615.68,866.621 615.43,719.219 -4.38,719.219L-4.38,946.093L1615.68,946.093Z" style="fill:rgb(60,124,60);fill-rule:nonzero;"/>
            <g>
                <path d="M1470.01,946.093C1423.44,889.903 1380.73,853.535 1345.51,830.059C1379.38,834.484 1410.74,838.525 1439.22,842.373C1490.6,875.471 1532.36,915.304 1561.22,946.286L1470.01,946.286L1470.01,946.093Z" style="fill:rgb(67,138,67);fill-rule:nonzero;"/>
                <path d="M1053.59,794.652C1085.53,798.307 1116.9,801.964 1147.11,805.427C1218.5,846.992 1275.65,904.722 1311.25,945.902L1214.85,945.902C1152.11,864.503 1095.73,819.475 1053.59,794.652Z" style="fill:rgb(67,138,67);fill-rule:nonzero;"/>
                <path d="M769.565,764.824C800.932,767.904 832.298,770.983 863.087,774.061C951.027,821.591 1020.69,896.254 1060.9,945.902L959.302,945.902C883.292,841.219 815.748,789.841 769.565,764.824Z" style="fill:rgb(67,138,67);fill-rule:nonzero;"/>
                <path d="M497.086,741.349C527.875,743.658 558.856,746.16 589.838,748.661C689.13,801.579 767.449,890.097 810.361,946.093L703.562,946.093C619.856,825.055 545.962,768.097 497.086,741.349Z" style="fill:rgb(67,138,67);fill-rule:nonzero;"/>
                <path d="M237.885,725.376C268.095,726.724 298.692,728.263 329.673,730.187C433.97,789.07 515.752,886.44 559.433,946.093L447.44,946.093C363.925,819.668 289.454,756.742 237.885,725.376Z" style="fill:rgb(67,138,67);fill-rule:nonzero;"/>
                <path d="M-4.385,719.219C23.902,719.219 53.153,719.603 82.978,720.181C185.736,785.607 265.785,885.671 308.12,946.093L190.932,946.093C115.883,828.134 47.764,760.592 -4.385,722.106L-4.385,719.219Z" style="fill:rgb(67,138,67);fill-rule:nonzero;"/>
            </g>
        </g>
        <g>
            <path d="M-2.431,1000.87L-2.431,921.493C-2.431,921.493 996.609,774.269 1615.68,774.269L1615.68,1000.68L-2.431,1000.68L-2.431,1000.87Z" style="fill:rgb(57,117,57);fill-rule:nonzero;"/>
            <g>
                <path d="M558.978,849.616C527.072,853.267 495.744,856.918 465.569,860.378C394.265,901.893 337.181,959.552 301.625,1000.68L397.916,1000.68C460.572,919.574 516.886,874.602 558.978,849.616Z" style="fill:rgb(67,138,67);fill-rule:nonzero;"/>
                <path d="M842.66,819.825C811.332,822.901 780.004,825.974 749.252,829.05C661.419,876.523 591.843,951.095 551.674,1000.68L653.153,1000.68C729.072,896.319 796.533,845.002 842.66,819.825Z" style="fill:rgb(67,138,67);fill-rule:nonzero;"/>
                <path d="M1114.81,796.376C1084.06,798.683 1053.12,801.182 1022.17,803.68C922.997,856.534 844.774,944.946 801.913,1000.87L908.582,1000.87C991.996,880.174 1065.99,823.092 1114.81,796.376Z" style="fill:rgb(67,138,67);fill-rule:nonzero;"/>
                <path d="M1373.7,780.424C1343.52,781.77 1312.97,783.307 1282.02,785.23C1177.85,844.042 1096.17,941.293 1052.54,1000.87L1164.4,1000.87C1247.81,874.793 1322.19,811.752 1373.7,780.424Z" style="fill:rgb(67,138,67);fill-rule:nonzero;"/>
                <path d="M1615.68,774.273C1587.43,774.273 1558.21,774.659 1528.42,775.235C1425.79,840.582 1345.84,940.525 1303.55,1000.87L1420.6,1000.87C1495.37,883.058 1563.4,815.597 1615.49,777.158L1615.49,774.273L1615.68,774.273Z" style="fill:rgb(67,138,67);fill-rule:nonzero;"/>
            </g>
        </g>
        <g>
            <path d="M396.207,641.018L406.292,630.107C400.342,610.268 391.082,591.915 380.336,592.907C368.433,594.066 356.033,622.668 350.743,648.624L362.149,661.023L349.421,655.236C347.601,666.811 347.27,677.225 349.254,684.005C356.199,706.488 380.171,701.861 380.171,701.861C400.011,701.861 412.74,690.783 412.74,668.298C412.74,660.197 410.922,647.963 407.615,635.563L396.207,641.018Z" style="fill:rgb(143,111,43);fill-rule:nonzero;"/>
            <path d="M367.771,675.904C367.771,675.904 375.542,685.658 376.7,701.364C377.857,716.904 374.385,735.588 374.385,735.588C374.385,735.588 379.674,740.051 385.958,735.588C385.958,735.588 384.14,711.449 385.958,695.411C387.775,679.375 393.067,667.141 393.067,667.141L389.265,664.827C389.265,664.827 385.132,679.706 380.336,682.351C375.542,684.997 370.581,672.597 370.581,672.597L367.771,675.904Z" style="fill:rgb(139,94,60);fill-rule:nonzero;"/>
        </g>
        <g>
            <path d="M508.468,646.971L518.551,636.058C512.6,616.218 503.341,597.868 492.594,598.86C480.691,600.016 468.291,628.618 463.002,654.575L474.408,666.975L461.843,661.189C460.026,672.761 459.695,683.177 461.679,689.956C468.622,712.441 492.594,707.811 492.594,707.811C512.434,707.811 525.165,696.734 525.165,674.25C525.165,666.149 523.347,653.914 520.04,641.515L508.468,646.971Z" style="fill:rgb(219,136,39);fill-rule:nonzero;"/>
            <path d="M479.865,681.69C479.865,681.69 487.636,691.445 488.792,707.15C489.951,722.69 486.477,741.374 486.477,741.374C486.477,741.374 491.768,745.837 498.052,741.374C498.052,741.374 496.232,717.235 498.052,701.199C499.87,685.161 505.161,672.928 505.161,672.928L501.357,670.613C501.357,670.613 497.224,685.492 492.43,688.138C487.636,690.783 482.675,678.383 482.675,678.383L479.865,681.69Z" style="fill:rgb(139,94,60);fill-rule:nonzero;"/>
        </g>
        <g>
            <path d="M618.08,652.757L628.166,641.846C622.213,622.006 612.956,603.654 602.209,604.646C590.304,605.804 577.906,634.405 572.615,660.361L584.023,672.761L571.292,666.975C569.474,678.548 569.143,688.963 571.126,695.742C578.07,718.227 602.043,713.597 602.043,713.597C621.882,713.597 634.613,702.522 634.613,680.037C634.613,671.936 632.793,659.7 629.488,647.302L618.08,652.757Z" style="fill:rgb(143,111,43);fill-rule:nonzero;"/>
            <path d="M589.643,687.476C589.643,687.476 597.413,697.231 598.571,712.936C599.728,728.643 596.257,747.16 596.257,747.16C596.257,747.16 601.548,751.623 607.829,747.16C607.829,747.16 606.011,723.021 607.829,706.985C609.649,690.948 614.938,678.714 614.938,678.714L611.136,676.399C611.136,676.399 607.003,691.278 602.209,693.924C597.413,696.569 592.454,684.169 592.454,684.169L589.643,687.476Z" style="fill:rgb(139,94,60);fill-rule:nonzero;"/>
        </g>
        <g>
            <path d="M1543.92,674.745L1558.63,658.874C1550.04,629.777 1536.48,603.159 1520.94,604.646C1503.58,606.466 1485.56,647.963 1477.79,685.987L1494.49,704.009L1475.97,695.577C1473.33,712.441 1472.83,727.651 1475.81,737.405C1485.89,770.307 1520.94,763.528 1520.94,763.528C1549.87,763.528 1568.39,747.491 1568.39,714.589C1568.39,702.853 1565.74,684.831 1560.95,666.975L1543.92,674.745Z" style="fill:rgb(219,136,39);fill-rule:nonzero;"/>
            <path d="M1502.43,725.336C1502.43,725.336 1513.84,739.72 1515.49,762.37C1517.14,785.02 1512.18,812.299 1512.18,812.299C1512.18,812.299 1519.79,818.747 1529.05,812.299C1529.05,812.299 1526.4,776.919 1529.05,753.608C1531.69,730.296 1539.3,712.275 1539.3,712.275L1533.84,708.97C1533.84,708.97 1527.89,730.627 1520.78,734.429C1513.67,738.233 1506.73,720.378 1506.73,720.378L1502.43,725.336Z" style="fill:rgb(139,94,60);fill-rule:nonzero;"/>
        </g>
        <path d="M-5.522,410.276C-5.522,410.276 71.027,365.966 134.677,459.874C134.677,459.874 202.959,422.676 211.886,497.239C211.886,497.239 274.712,454.583 403.173,539.728L-5.522,539.728L-5.522,410.276Z" style="fill:white;fill-rule:nonzero;"/>
    </g>
    <defs>
        <linearGradient id="_Linear1" x1="0" y1="0" x2="1" y2="0" gradientUnits="userSpaceOnUse" gradientTransform="matrix(5.28577e-14,863.232,-863.232,5.28577e-14,796.338,-166.493)"><stop offset="0" style="stop-color:rgb(173,196,230);stop-opacity:1"/><stop offset="1" style="stop-color:rgb(225,232,246);stop-opacity:1"/></linearGradient>
    </defs>
</svg>
