<?xml version="1.0" encoding="UTF-8" standalone="no"?>
<!DOCTYPE svg PUBLIC "-//W3C//DTD SVG 1.1//EN" "http://www.w3.org/Graphics/SVG/1.1/DTD/svg11.dtd">
<svg width="100%" height="100%" viewBox="0 0 541 394" version="1.1" xmlns="http://www.w3.org/2000/svg" xmlns:xlink="http://www.w3.org/1999/xlink" xml:space="preserve" xmlns:serif="http://www.serif.com/" style="fill-rule:evenodd;clip-rule:evenodd;stroke-linejoin:round;stroke-miterlimit:2;">
    <g transform="matrix(0.998226,-0.0595444,0.0595444,0.998226,-133.311,-338.787)">
        <g transform="matrix(0.580388,0,-7.80626e-18,1.125,43.675,-55.125)">
            <rect x="116" y="385" width="924" height="80" style="fill:rgb(214,0,120);"/>
        </g>
        <g transform="matrix(1,0,0,1,-135,-155)">
            <g>
                <g transform="matrix(50,0,0,50,271.713,595.794)">
                    <path d="M1.196,-0.7L0.972,0L0.719,0L0.606,-0.374L0.487,0L0.234,0L0.01,-0.7L0.253,-0.7L0.375,-0.302L0.504,-0.7L0.721,-0.7L0.843,-0.297L0.972,-0.7L1.196,-0.7Z" style="fill:white;fill-rule:nonzero;"/>
                </g>
                <g transform="matrix(1,0,0,1,331.263,595.794)">
                    <g transform="matrix(50,0,0,50,0,0)">
                        <rect x="0.057" y="-0.7" width="0.236" height="0.7" style="fill:white;fill-rule:nonzero;"/>
                    </g>
                    <g transform="matrix(50,0,0,50,17.5,0)">
                        <path d="M0.318,0.016C0.26,0.016 0.204,0.01 0.149,-0.004C0.093,-0.017 0.048,-0.034 0.013,-0.056L0.089,-0.228C0.122,-0.209 0.16,-0.193 0.201,-0.182C0.242,-0.17 0.282,-0.164 0.32,-0.164C0.353,-0.164 0.376,-0.167 0.39,-0.174C0.404,-0.18 0.411,-0.189 0.411,-0.202C0.411,-0.217 0.402,-0.228 0.384,-0.235C0.365,-0.242 0.335,-0.25 0.293,-0.259C0.239,-0.27 0.194,-0.283 0.158,-0.296C0.122,-0.309 0.091,-0.33 0.064,-0.36C0.037,-0.389 0.024,-0.429 0.024,-0.48C0.024,-0.524 0.036,-0.564 0.061,-0.6C0.086,-0.636 0.123,-0.664 0.172,-0.685C0.221,-0.706 0.28,-0.716 0.35,-0.716C0.398,-0.716 0.445,-0.711 0.492,-0.701C0.538,-0.69 0.579,-0.675 0.614,-0.655L0.543,-0.484C0.474,-0.519 0.409,-0.536 0.348,-0.536C0.287,-0.536 0.257,-0.521 0.257,-0.492C0.257,-0.478 0.266,-0.468 0.284,-0.461C0.302,-0.454 0.332,-0.446 0.373,-0.438C0.426,-0.428 0.471,-0.417 0.508,-0.404C0.545,-0.391 0.577,-0.369 0.604,-0.34C0.631,-0.311 0.644,-0.271 0.644,-0.22C0.644,-0.176 0.632,-0.136 0.607,-0.101C0.582,-0.065 0.546,-0.037 0.497,-0.016C0.448,0.006 0.388,0.016 0.318,0.016Z" style="fill:white;fill-rule:nonzero;"/>
                    </g>
                    <g transform="matrix(50,0,0,50,50.35,0)">
                        <path d="M0.318,0.016C0.26,0.016 0.204,0.01 0.149,-0.004C0.093,-0.017 0.048,-0.034 0.013,-0.056L0.089,-0.228C0.122,-0.209 0.16,-0.193 0.201,-0.182C0.242,-0.17 0.282,-0.164 0.32,-0.164C0.353,-0.164 0.376,-0.167 0.39,-0.174C0.404,-0.18 0.411,-0.189 0.411,-0.202C0.411,-0.217 0.402,-0.228 0.384,-0.235C0.365,-0.242 0.335,-0.25 0.293,-0.259C0.239,-0.27 0.194,-0.283 0.158,-0.296C0.122,-0.309 0.091,-0.33 0.064,-0.36C0.037,-0.389 0.024,-0.429 0.024,-0.48C0.024,-0.524 0.036,-0.564 0.061,-0.6C0.086,-0.636 0.123,-0.664 0.172,-0.685C0.221,-0.706 0.28,-0.716 0.35,-0.716C0.398,-0.716 0.445,-0.711 0.492,-0.701C0.538,-0.69 0.579,-0.675 0.614,-0.655L0.543,-0.484C0.474,-0.519 0.409,-0.536 0.348,-0.536C0.287,-0.536 0.257,-0.521 0.257,-0.492C0.257,-0.478 0.266,-0.468 0.284,-0.461C0.302,-0.454 0.332,-0.446 0.373,-0.438C0.426,-0.428 0.471,-0.417 0.508,-0.404C0.545,-0.391 0.577,-0.369 0.604,-0.34C0.631,-0.311 0.644,-0.271 0.644,-0.22C0.644,-0.176 0.632,-0.136 0.607,-0.101C0.582,-0.065 0.546,-0.037 0.497,-0.016C0.448,0.006 0.388,0.016 0.318,0.016Z" style="fill:white;fill-rule:nonzero;"/>
                    </g>
                    <g transform="matrix(50,0,0,50,83.2,0)">
                        <path d="M0.639,-0.178L0.639,0L0.057,0L0.057,-0.7L0.626,-0.7L0.626,-0.522L0.289,-0.522L0.289,-0.44L0.585,-0.44L0.585,-0.27L0.289,-0.27L0.289,-0.178L0.639,-0.178Z" style="fill:white;fill-rule:nonzero;"/>
                    </g>
                    <g transform="matrix(50,0,0,50,116.85,0)">
                        <path d="M0.747,-0.7L0.747,0L0.553,0L0.287,-0.318L0.287,0L0.057,0L0.057,-0.7L0.251,-0.7L0.517,-0.382L0.517,-0.7L0.747,-0.7Z" style="fill:white;fill-rule:nonzero;"/>
                    </g>
                    <g transform="matrix(50,0,0,50,157.05,0)">
                        <path d="M0.318,0.016C0.26,0.016 0.204,0.01 0.149,-0.004C0.093,-0.017 0.048,-0.034 0.013,-0.056L0.089,-0.228C0.122,-0.209 0.16,-0.193 0.201,-0.182C0.242,-0.17 0.282,-0.164 0.32,-0.164C0.353,-0.164 0.376,-0.167 0.39,-0.174C0.404,-0.18 0.411,-0.189 0.411,-0.202C0.411,-0.217 0.402,-0.228 0.384,-0.235C0.365,-0.242 0.335,-0.25 0.293,-0.259C0.239,-0.27 0.194,-0.283 0.158,-0.296C0.122,-0.309 0.091,-0.33 0.064,-0.36C0.037,-0.389 0.024,-0.429 0.024,-0.48C0.024,-0.524 0.036,-0.564 0.061,-0.6C0.086,-0.636 0.123,-0.664 0.172,-0.685C0.221,-0.706 0.28,-0.716 0.35,-0.716C0.398,-0.716 0.445,-0.711 0.492,-0.701C0.538,-0.69 0.579,-0.675 0.614,-0.655L0.543,-0.484C0.474,-0.519 0.409,-0.536 0.348,-0.536C0.287,-0.536 0.257,-0.521 0.257,-0.492C0.257,-0.478 0.266,-0.468 0.284,-0.461C0.302,-0.454 0.332,-0.446 0.373,-0.438C0.426,-0.428 0.471,-0.417 0.508,-0.404C0.545,-0.391 0.577,-0.369 0.604,-0.34C0.631,-0.311 0.644,-0.271 0.644,-0.22C0.644,-0.176 0.632,-0.136 0.607,-0.101C0.582,-0.065 0.546,-0.037 0.497,-0.016C0.448,0.006 0.388,0.016 0.318,0.016Z" style="fill:white;fill-rule:nonzero;"/>
                    </g>
                    <g transform="matrix(50,0,0,50,189.9,0)">
                        <path d="M0.419,0.016C0.345,0.016 0.278,0.001 0.219,-0.031C0.16,-0.062 0.113,-0.105 0.08,-0.161C0.046,-0.216 0.029,-0.279 0.029,-0.35C0.029,-0.421 0.046,-0.484 0.08,-0.54C0.113,-0.595 0.16,-0.639 0.219,-0.67C0.278,-0.7 0.345,-0.716 0.419,-0.716C0.487,-0.716 0.548,-0.704 0.601,-0.68C0.654,-0.656 0.698,-0.621 0.733,-0.576L0.584,-0.443C0.541,-0.498 0.49,-0.525 0.431,-0.525C0.382,-0.525 0.342,-0.509 0.312,-0.478C0.282,-0.446 0.267,-0.403 0.267,-0.35C0.267,-0.297 0.282,-0.254 0.312,-0.223C0.342,-0.191 0.382,-0.175 0.431,-0.175C0.49,-0.175 0.541,-0.202 0.584,-0.257L0.733,-0.124C0.698,-0.079 0.654,-0.044 0.601,-0.02C0.548,0.004 0.487,0.016 0.419,0.016Z" style="fill:white;fill-rule:nonzero;"/>
                    </g>
                    <g transform="matrix(50,0,0,50,227.1,0)">
                        <path d="M0.747,-0.7L0.747,0L0.511,0L0.511,-0.258L0.293,-0.258L0.293,0L0.057,0L0.057,-0.7L0.293,-0.7L0.293,-0.452L0.511,-0.452L0.511,-0.7L0.747,-0.7Z" style="fill:white;fill-rule:nonzero;"/>
                    </g>
                    <g transform="matrix(50,0,0,50,267.3,0)">
                        <path d="M0.534,-0.122L0.268,-0.122L0.221,0L-0.019,0L0.287,-0.7L0.519,-0.7L0.825,0L0.581,0L0.534,-0.122ZM0.469,-0.292L0.401,-0.468L0.333,-0.292L0.469,-0.292Z" style="fill:white;fill-rule:nonzero;"/>
                    </g>
                    <g transform="matrix(50,0,0,50,307.6,0)">
                        <path d="M0.293,-0.522L0.293,-0.402L0.585,-0.402L0.585,-0.224L0.293,-0.224L0.293,0L0.057,0L0.057,-0.7L0.626,-0.7L0.626,-0.522L0.293,-0.522Z" style="fill:white;fill-rule:nonzero;"/>
                    </g>
                </g>
                <g transform="matrix(1,0,0,1,671.313,595.794)">
                    <g transform="matrix(50,0,0,50,0,0)">
                        <path d="M0.209,-0.517L0.004,-0.517L0.004,-0.7L0.65,-0.7L0.65,-0.517L0.445,-0.517L0.445,0L0.209,0L0.209,-0.517Z" style="fill:white;fill-rule:nonzero;"/>
                    </g>
                    <g transform="matrix(50,0,0,50,47.7,0)">
                        <path d="M0.747,-0.338C0.734,-0.279 0.712,-0.227 0.681,-0.18L0.747,-0.124L0.626,0.013L0.552,-0.051C0.483,-0.006 0.405,0.016 0.318,0.016C0.263,0.016 0.213,0.007 0.169,-0.011C0.124,-0.028 0.089,-0.052 0.064,-0.083C0.039,-0.114 0.026,-0.148 0.026,-0.187C0.026,-0.231 0.037,-0.269 0.059,-0.302C0.081,-0.334 0.115,-0.363 0.162,-0.389C0.122,-0.432 0.102,-0.476 0.102,-0.523C0.102,-0.56 0.113,-0.593 0.134,-0.622C0.155,-0.65 0.184,-0.672 0.222,-0.688C0.26,-0.704 0.304,-0.712 0.354,-0.712C0.4,-0.712 0.44,-0.705 0.476,-0.691C0.511,-0.676 0.538,-0.656 0.557,-0.629C0.576,-0.602 0.586,-0.57 0.586,-0.535C0.586,-0.5 0.576,-0.468 0.557,-0.441C0.537,-0.413 0.506,-0.387 0.465,-0.364L0.539,-0.301C0.551,-0.328 0.56,-0.358 0.566,-0.392L0.747,-0.338ZM0.355,-0.566C0.34,-0.566 0.328,-0.562 0.32,-0.555C0.311,-0.548 0.307,-0.538 0.307,-0.526C0.307,-0.517 0.31,-0.509 0.315,-0.501C0.32,-0.493 0.329,-0.483 0.342,-0.47C0.379,-0.49 0.397,-0.51 0.397,-0.53C0.397,-0.541 0.393,-0.549 0.386,-0.556C0.379,-0.563 0.368,-0.566 0.355,-0.566ZM0.335,-0.152C0.362,-0.152 0.388,-0.158 0.414,-0.169L0.286,-0.279C0.26,-0.26 0.247,-0.238 0.247,-0.212C0.247,-0.195 0.255,-0.18 0.271,-0.169C0.286,-0.158 0.308,-0.152 0.335,-0.152Z" style="fill:white;fill-rule:nonzero;"/>
                    </g>
                </g>
            </g>
        </g>
    </g>
    <g transform="matrix(0.998723,0.0505279,-0.0505279,0.998723,-42.9387,-230.73)">
        <g transform="matrix(0.485028,8.0545e-18,1.2826e-18,1.125,54.7368,-55.125)">
            <rect x="116" y="385" width="924" height="80" style="fill:rgb(214,0,120);"/>
        </g>
        <g transform="matrix(1,0,0,1,-135,-155)">
            <g>
                <g transform="matrix(1,0,0,1,271.713,595.794)">
                    <g transform="matrix(50,0,0,50,0,0)">
                        <path d="M0.342,-0.232L0.289,-0.173L0.289,0L0.057,0L0.057,-0.7L0.289,-0.7L0.289,-0.446L0.519,-0.7L0.776,-0.7L0.496,-0.392L0.79,0L0.517,0L0.342,-0.232Z" style="fill:white;fill-rule:nonzero;"/>
                    </g>
                    <g transform="matrix(50,0,0,50,38.25,0)">
                        <path d="M0.057,-0.7L0.293,-0.7L0.293,-0.183L0.609,-0.183L0.609,0L0.057,0L0.057,-0.7Z" style="fill:white;fill-rule:nonzero;"/>
                    </g>
                    <g transform="matrix(50,0,0,50,69.1,0)">
                        <rect x="0.057" y="-0.7" width="0.236" height="0.7" style="fill:white;fill-rule:nonzero;"/>
                    </g>
                    <g transform="matrix(50,0,0,50,86.6,0)">
                        <path d="M0.682,0L0.68,-0.319L0.528,-0.063L0.424,-0.063L0.272,-0.308L0.272,0L0.057,0L0.057,-0.7L0.251,-0.7L0.479,-0.327L0.701,-0.7L0.895,-0.7L0.897,0L0.682,0Z" style="fill:white;fill-rule:nonzero;"/>
                    </g>
                    <g transform="matrix(50,0,0,50,134.3,0)">
                        <path d="M0.534,-0.122L0.268,-0.122L0.221,0L-0.019,0L0.287,-0.7L0.519,-0.7L0.825,0L0.581,0L0.534,-0.122ZM0.469,-0.292L0.401,-0.468L0.333,-0.292L0.469,-0.292Z" style="fill:white;fill-rule:nonzero;"/>
                    </g>
                    <g transform="matrix(50,0,0,50,174.6,0)">
                        <path d="M0.318,0.016C0.26,0.016 0.204,0.01 0.149,-0.004C0.093,-0.017 0.048,-0.034 0.013,-0.056L0.089,-0.228C0.122,-0.209 0.16,-0.193 0.201,-0.182C0.242,-0.17 0.282,-0.164 0.32,-0.164C0.353,-0.164 0.376,-0.167 0.39,-0.174C0.404,-0.18 0.411,-0.189 0.411,-0.202C0.411,-0.217 0.402,-0.228 0.384,-0.235C0.365,-0.242 0.335,-0.25 0.293,-0.259C0.239,-0.27 0.194,-0.283 0.158,-0.296C0.122,-0.309 0.091,-0.33 0.064,-0.36C0.037,-0.389 0.024,-0.429 0.024,-0.48C0.024,-0.524 0.036,-0.564 0.061,-0.6C0.086,-0.636 0.123,-0.664 0.172,-0.685C0.221,-0.706 0.28,-0.716 0.35,-0.716C0.398,-0.716 0.445,-0.711 0.492,-0.701C0.538,-0.69 0.579,-0.675 0.614,-0.655L0.543,-0.484C0.474,-0.519 0.409,-0.536 0.348,-0.536C0.287,-0.536 0.257,-0.521 0.257,-0.492C0.257,-0.478 0.266,-0.468 0.284,-0.461C0.302,-0.454 0.332,-0.446 0.373,-0.438C0.426,-0.428 0.471,-0.417 0.508,-0.404C0.545,-0.391 0.577,-0.369 0.604,-0.34C0.631,-0.311 0.644,-0.271 0.644,-0.22C0.644,-0.176 0.632,-0.136 0.607,-0.101C0.582,-0.065 0.546,-0.037 0.497,-0.016C0.448,0.006 0.388,0.016 0.318,0.016Z" style="fill:white;fill-rule:nonzero;"/>
                    </g>
                    <g transform="matrix(50,0,0,50,207.45,0)">
                        <path d="M0.419,0.016C0.345,0.016 0.278,0.001 0.219,-0.031C0.16,-0.062 0.113,-0.105 0.08,-0.161C0.046,-0.216 0.029,-0.279 0.029,-0.35C0.029,-0.421 0.046,-0.484 0.08,-0.54C0.113,-0.595 0.16,-0.639 0.219,-0.67C0.278,-0.7 0.345,-0.716 0.419,-0.716C0.487,-0.716 0.548,-0.704 0.601,-0.68C0.654,-0.656 0.698,-0.621 0.733,-0.576L0.584,-0.443C0.541,-0.498 0.49,-0.525 0.431,-0.525C0.382,-0.525 0.342,-0.509 0.312,-0.478C0.282,-0.446 0.267,-0.403 0.267,-0.35C0.267,-0.297 0.282,-0.254 0.312,-0.223C0.342,-0.191 0.382,-0.175 0.431,-0.175C0.49,-0.175 0.541,-0.202 0.584,-0.257L0.733,-0.124C0.698,-0.079 0.654,-0.044 0.601,-0.02C0.548,0.004 0.487,0.016 0.419,0.016Z" style="fill:white;fill-rule:nonzero;"/>
                    </g>
                    <g transform="matrix(50,0,0,50,244.65,0)">
                        <path d="M0.747,-0.7L0.747,0L0.511,0L0.511,-0.258L0.293,-0.258L0.293,0L0.057,0L0.057,-0.7L0.293,-0.7L0.293,-0.452L0.511,-0.452L0.511,-0.7L0.747,-0.7Z" style="fill:white;fill-rule:nonzero;"/>
                    </g>
                    <g transform="matrix(50,0,0,50,284.85,0)">
                        <path d="M0.392,0.016C0.285,0.016 0.201,-0.013 0.141,-0.071C0.081,-0.129 0.051,-0.21 0.051,-0.315L0.051,-0.7L0.287,-0.7L0.287,-0.322C0.287,-0.271 0.296,-0.233 0.315,-0.21C0.333,-0.187 0.359,-0.175 0.394,-0.175C0.429,-0.175 0.455,-0.187 0.474,-0.21C0.492,-0.233 0.501,-0.271 0.501,-0.322L0.501,-0.7L0.733,-0.7L0.733,-0.315C0.733,-0.21 0.703,-0.129 0.643,-0.071C0.583,-0.013 0.499,0.016 0.392,0.016Z" style="fill:white;fill-rule:nonzero;"/>
                    </g>
                </g>
                <g transform="matrix(1,0,0,1,595.263,595.794)">
                    <g transform="matrix(50,0,0,50,0,0)">
                        <path d="M0.209,-0.517L0.004,-0.517L0.004,-0.7L0.65,-0.7L0.65,-0.517L0.445,-0.517L0.445,0L0.209,0L0.209,-0.517Z" style="fill:white;fill-rule:nonzero;"/>
                    </g>
                    <g transform="matrix(50,0,0,50,32.7,0)">
                        <path d="M0.675,-0.183L0.675,0L0.032,0L0.032,-0.145L0.352,-0.517L0.042,-0.517L0.042,-0.7L0.659,-0.7L0.659,-0.555L0.339,-0.183L0.675,-0.183Z" style="fill:white;fill-rule:nonzero;"/>
                    </g>
                </g>
            </g>
        </g>
    </g>
    <g transform="matrix(0.999628,0.027281,-0.027281,0.999628,-95.9766,-92.3774)">
        <g transform="matrix(0.577922,0,0,1.125,43.961,-55.125)">
            <rect x="116" y="385" width="924" height="80" style="fill:rgb(214,0,120);"/>
        </g>
        <g transform="matrix(1,0,0,1,-135,-155)">
            <g>
                <g transform="matrix(1,0,0,1,271.713,595.794)">
                    <g transform="matrix(50,0,0,50,0,0)">
                        <rect x="0.057" y="-0.7" width="0.236" height="0.7" style="fill:white;fill-rule:nonzero;"/>
                    </g>
                    <g transform="matrix(50,0,0,50,17.5,0)">
                        <path d="M0.747,-0.7L0.747,0L0.553,0L0.287,-0.318L0.287,0L0.057,0L0.057,-0.7L0.251,-0.7L0.517,-0.382L0.517,-0.7L0.747,-0.7Z" style="fill:white;fill-rule:nonzero;"/>
                    </g>
                    <g transform="matrix(50,0,0,50,72.7,0)">
                        <path d="M0.057,-0.7L0.402,-0.7C0.48,-0.7 0.549,-0.686 0.609,-0.658C0.668,-0.629 0.715,-0.589 0.748,-0.536C0.781,-0.483 0.797,-0.421 0.797,-0.35C0.797,-0.279 0.781,-0.217 0.748,-0.164C0.715,-0.111 0.668,-0.071 0.609,-0.043C0.549,-0.014 0.48,0 0.402,0L0.057,0L0.057,-0.7ZM0.392,-0.184C0.443,-0.184 0.483,-0.199 0.514,-0.228C0.544,-0.257 0.559,-0.297 0.559,-0.35C0.559,-0.403 0.544,-0.444 0.514,-0.473C0.483,-0.502 0.443,-0.516 0.392,-0.516L0.293,-0.516L0.293,-0.184L0.392,-0.184Z" style="fill:white;fill-rule:nonzero;"/>
                    </g>
                    <g transform="matrix(50,0,0,50,114,0)">
                        <path d="M0.639,-0.178L0.639,0L0.057,0L0.057,-0.7L0.626,-0.7L0.626,-0.522L0.289,-0.522L0.289,-0.44L0.585,-0.44L0.585,-0.27L0.289,-0.27L0.289,-0.178L0.639,-0.178Z" style="fill:white;fill-rule:nonzero;"/>
                    </g>
                    <g transform="matrix(50,0,0,50,147.65,0)">
                        <path d="M0.747,-0.7L0.747,0L0.553,0L0.287,-0.318L0.287,0L0.057,0L0.057,-0.7L0.251,-0.7L0.517,-0.382L0.517,-0.7L0.747,-0.7Z" style="fill:white;fill-rule:nonzero;"/>
                    </g>
                    <g transform="matrix(50,0,0,50,202.85,0)">
                        <path d="M0.057,-0.7L0.293,-0.7L0.293,-0.183L0.609,-0.183L0.609,0L0.057,0L0.057,-0.7Z" style="fill:white;fill-rule:nonzero;"/>
                    </g>
                </g>
                <g transform="matrix(1,0,0,1,505.913,595.794)">
                    <g transform="matrix(50,0,0,50,0,0)">
                        <path d="M0.534,-0.122L0.268,-0.122L0.221,0L-0.019,0L0.287,-0.7L0.519,-0.7L0.825,0L0.581,0L0.534,-0.122ZM0.469,-0.292L0.401,-0.468L0.333,-0.292L0.469,-0.292Z" style="fill:white;fill-rule:nonzero;"/>
                    </g>
                    <g transform="matrix(50,0,0,50,40.3,0)">
                        <path d="M0.747,-0.7L0.747,0L0.553,0L0.287,-0.318L0.287,0L0.057,0L0.057,-0.7L0.251,-0.7L0.517,-0.382L0.517,-0.7L0.747,-0.7Z" style="fill:white;fill-rule:nonzero;"/>
                    </g>
                    <g transform="matrix(50,0,0,50,80.5,0)">
                        <path d="M0.057,-0.7L0.402,-0.7C0.48,-0.7 0.549,-0.686 0.609,-0.658C0.668,-0.629 0.715,-0.589 0.748,-0.536C0.781,-0.483 0.797,-0.421 0.797,-0.35C0.797,-0.279 0.781,-0.217 0.748,-0.164C0.715,-0.111 0.668,-0.071 0.609,-0.043C0.549,-0.014 0.48,0 0.402,0L0.057,0L0.057,-0.7ZM0.392,-0.184C0.443,-0.184 0.483,-0.199 0.514,-0.228C0.544,-0.257 0.559,-0.297 0.559,-0.35C0.559,-0.403 0.544,-0.444 0.514,-0.473C0.483,-0.502 0.443,-0.516 0.392,-0.516L0.293,-0.516L0.293,-0.184L0.392,-0.184Z" style="fill:white;fill-rule:nonzero;"/>
                    </g>
                </g>
                <g transform="matrix(1,0,0,1,627.213,595.794)">
                    <g transform="matrix(50,0,0,50,0,0)">
                        <path d="M0.209,-0.517L0.004,-0.517L0.004,-0.7L0.65,-0.7L0.65,-0.517L0.445,-0.517L0.445,0L0.209,0L0.209,-0.517Z" style="fill:white;fill-rule:nonzero;"/>
                    </g>
                    <g transform="matrix(50,0,0,50,30.95,0)">
                        <path d="M0.534,-0.122L0.268,-0.122L0.221,0L-0.019,0L0.287,-0.7L0.519,-0.7L0.825,0L0.581,0L0.534,-0.122ZM0.469,-0.292L0.401,-0.468L0.333,-0.292L0.469,-0.292Z" style="fill:white;fill-rule:nonzero;"/>
                    </g>
                    <g transform="matrix(50,0,0,50,70.75,0)">
                        <path d="M0.52,-0.369L0.725,-0.369L0.725,-0.073C0.684,-0.044 0.636,-0.022 0.581,-0.007C0.526,0.008 0.473,0.016 0.42,0.016C0.345,0.016 0.278,0.001 0.219,-0.031C0.16,-0.062 0.113,-0.105 0.08,-0.161C0.046,-0.216 0.029,-0.279 0.029,-0.35C0.029,-0.421 0.046,-0.484 0.08,-0.54C0.113,-0.595 0.16,-0.639 0.221,-0.67C0.281,-0.7 0.349,-0.716 0.425,-0.716C0.494,-0.716 0.555,-0.705 0.61,-0.682C0.664,-0.659 0.709,-0.625 0.745,-0.581L0.594,-0.448C0.55,-0.499 0.498,-0.525 0.437,-0.525C0.385,-0.525 0.344,-0.509 0.313,-0.478C0.282,-0.447 0.267,-0.404 0.267,-0.35C0.267,-0.297 0.282,-0.255 0.313,-0.223C0.343,-0.191 0.383,-0.175 0.434,-0.175C0.464,-0.175 0.493,-0.181 0.52,-0.192L0.52,-0.369Z" style="fill:white;fill-rule:nonzero;"/>
                    </g>
                    <g transform="matrix(50,0,0,50,109.2,0)">
                        <path d="M0.022,-0.7L0.292,-0.7L0.247,-0.268L0.067,-0.268L0.022,-0.7ZM0.157,0.01C0.118,0.01 0.087,-0.002 0.062,-0.025C0.037,-0.048 0.025,-0.077 0.025,-0.11C0.025,-0.144 0.037,-0.172 0.062,-0.195C0.087,-0.217 0.118,-0.228 0.157,-0.228C0.196,-0.228 0.227,-0.217 0.252,-0.195C0.277,-0.172 0.289,-0.144 0.289,-0.11C0.289,-0.077 0.277,-0.048 0.252,-0.025C0.227,-0.002 0.196,0.01 0.157,0.01Z" style="fill:white;fill-rule:nonzero;"/>
                    </g>
                </g>
            </g>
        </g>
    </g>
</svg>
