<?xml version="1.0" encoding="UTF-8" standalone="no"?><!DOCTYPE svg PUBLIC "-//W3C//DTD SVG 1.1//EN" "http://www.w3.org/Graphics/SVG/1.1/DTD/svg11.dtd"><svg width="100%" height="100%" viewBox="0 0 656 867" version="1.1" xmlns="http://www.w3.org/2000/svg" xmlns:xlink="http://www.w3.org/1999/xlink" xml:space="preserve" xmlns:serif="http://www.serif.com/" style="fill-rule:evenodd;clip-rule:evenodd;stroke-linejoin:round;stroke-miterlimit:2;"><path d="M465.822,10.231l-6.533,6.098l1.089,7.621c1.851,13.828 1.851,13.719 -6.315,22.103c-5.227,5.444 -8.711,7.948 -11.977,9.037c-4.029,1.198 -4.464,1.525 -3.049,3.049c1.851,2.286 3.158,8.819 1.633,8.819c-0.653,0 -0.762,0.545 -0.435,1.089c0.435,0.653 -0.871,3.049 -2.722,5.335c-3.049,3.92 -4.682,4.791 -20.47,9.908c-9.364,3.158 -22.974,8.057 -30.269,10.997c-11.541,4.682 -13.501,5.226 -16.876,4.247c-1.96,-0.654 -5.771,-1.089 -8.275,-1.089c-6.206,0 -7.948,2.613 -7.948,11.759c0,9.581 -1.851,16.332 -5.118,18.401c-4.464,2.939 -24.171,7.948 -31.031,7.948l-6.532,0l0.326,-5.226c0.327,-4.464 0.109,-5.118 -1.742,-5.118c-1.524,0 -2.504,1.307 -3.484,4.791c-2.613,9.146 -5.335,10.453 -31.793,15.788l-13.501,2.722l-5.118,5.553c-4.464,4.899 -6.315,5.988 -8.928,5.553c-0.544,0 -0.871,0.435 -0.871,0.979c0,0.763 -2.178,0.98 -6.533,0.436c-5.008,-0.544 -6.533,-0.436 -6.859,0.762c-0.327,0.871 -2.287,9.255 -4.573,18.728l-4.029,17.203l-4.028,1.96c-7.404,3.701 -8.493,3.81 -14.264,0.217c-3.048,-1.851 -5.988,-3.375 -6.533,-3.375c-0.544,0 -3.81,1.742 -7.186,3.92l-6.097,3.919l0.436,13.175c0.326,12.739 0.544,13.501 3.919,19.054c1.851,3.158 3.484,5.988 3.484,6.206c0,0.109 -0.98,0.109 -2.286,-0.218c-1.198,-0.326 -5.117,0.218 -8.711,1.307c-7.186,2.178 -7.839,2.069 -24.933,-4.029c-5.989,-2.177 -10.562,-4.573 -13.066,-6.968l-3.92,-3.702l-9.69,3.267c-5.444,1.851 -13.174,3.81 -17.421,4.464c-4.137,0.544 -8.71,1.524 -10.017,2.068c-2.069,0.871 -2.722,0.545 -4.137,-2.068c-0.871,-1.742 -3.702,-4.9 -6.206,-6.969c-3.702,-3.048 -5.336,-3.702 -7.731,-3.266c-1.742,0.327 -3.375,1.198 -3.593,1.96c-0.871,2.069 2.722,14.808 5.226,18.836c2.722,4.464 1.96,5.444 -6.968,8.384c-6.206,2.069 -6.315,2.069 -10.562,-0.327c-2.286,-1.306 -5.335,-2.395 -6.641,-2.395c-3.049,0 -6.533,1.851 -6.533,3.593c0,0.762 -1.198,3.702 -2.613,6.751c-2.287,5.008 -3.702,6.206 -16.986,14.698c-16.658,10.562 -17.638,11.433 -17.312,14.59c0,1.198 0.109,6.315 0,11.324c-0.108,8.928 -0.108,9.037 -4.355,13.61c-3.157,3.484 -5.117,7.186 -7.513,14.372c-4.573,13.719 -7.077,27.22 -6.423,33.753c1.524,14.155 14.916,47.254 25.586,62.715c8.166,11.868 8.384,12.086 21.45,20.034c6.968,4.247 15.134,10.344 19.598,14.699c11.324,10.997 15.788,12.739 22.539,8.711c3.593,-2.069 3.593,-2.069 7.186,0.217c4.464,2.831 5.444,5.118 6.315,15.897c0.653,7.513 0.326,9.582 -2.722,19.272c-2.722,8.928 -5.444,14.154 -14.917,29.398c-11.65,18.836 -16.332,24.715 -21.123,27.002c-1.415,0.762 -4.028,3.375 -5.879,5.88l-3.158,4.573l2.069,3.919c1.089,2.178 2.831,4.682 3.92,5.553c0.98,0.98 8.71,3.811 17.094,6.533c25.587,7.948 38.761,7.73 74.583,-1.307c13.066,-3.266 16.114,-4.79 21.885,-10.67c3.375,-3.593 6.968,-5.553 16.332,-9.255c6.642,-2.504 12.957,-5.226 14.155,-5.879c1.197,-0.654 4.682,-2.505 7.621,-4.247c3.376,-1.851 7.078,-3.048 9.8,-3.048c6.097,0 9.472,1.089 8.819,2.831c-0.327,0.762 -0.109,1.742 0.435,2.068c1.307,0.871 7.84,-1.96 9.691,-4.137c1.306,-1.633 1.851,-1.524 6.533,1.633c2.722,1.851 8.166,6.206 12.085,9.582c6.751,5.879 28.636,18.836 34.189,20.251c1.633,0.327 4.246,-0.217 6.968,-1.633c2.504,-1.306 4.682,-2.286 4.9,-2.286c0.544,0 3.157,6.097 3.811,8.71c0.762,2.94 0.544,28.745 -0.218,36.04c-0.762,7.186 -0.762,7.295 -5.226,8.928c-3.267,1.306 -4.247,2.177 -3.702,3.484c0.326,0.98 0.653,2.395 0.653,3.157c0,0.763 2.395,2.94 5.444,4.9c5.444,3.484 5.444,3.593 5.444,9.364l0,5.77l9.581,5.662c9.582,5.662 11.977,6.098 18.075,3.702c1.742,-0.653 1.959,-0.435 1.197,1.307c-0.435,1.089 -1.633,6.206 -2.504,11.214c-1.198,7.078 -1.307,9.255 -0.218,9.909c0.98,0.653 0.98,2.177 -0.435,6.859c-1.96,6.642 -3.158,7.839 -13.828,13.828c-8.928,5.008 -15.134,10.888 -15.134,14.372c0,8.166 13.827,31.358 18.727,31.358c1.524,0 1.96,-0.545 1.524,-1.634c-0.871,-2.286 2.178,-3.375 13.501,-5.335l9.146,-1.524l6.86,3.375l6.859,3.376l0,7.403c0,6.533 0.545,8.493 4.356,16.115c3.702,7.404 5.226,9.255 11.105,13.392c10.126,7.077 19.599,12.521 27.003,15.57c8.71,3.484 28.309,4.137 38.979,1.089c6.533,-1.742 7.622,-1.742 17.856,-0.109c6.098,0.98 11.868,2.178 12.957,2.722c1.089,0.653 3.158,1.089 4.682,1.089c3.158,0 16.332,4.79 27.873,10.126c5.009,2.286 9.691,5.335 12.195,8.057c5.989,6.533 20.361,12.086 31.575,12.086c4.573,0 9.255,0.544 10.453,1.197c1.198,0.653 2.395,0.762 2.831,0.436c0.327,-0.436 1.306,0.217 2.177,1.306c1.416,1.96 1.743,1.851 7.513,-2.395c6.751,-5.226 9.691,-9.473 14.372,-21.123c1.851,-4.464 6.098,-13.066 9.473,-19.054c6.751,-11.759 7.731,-14.808 13.283,-39.197c3.158,-13.937 3.594,-17.094 2.723,-21.341c-1.525,-7.077 0.217,-10.017 11.541,-18.945c5.117,-4.028 9.255,-7.73 9.255,-8.275c0,-0.435 1.742,-1.742 3.81,-2.722c3.376,-1.633 3.92,-2.286 3.594,-5.226c-0.218,-2.722 -1.198,-3.593 -4.9,-5.335c-6.642,-3.049 -6.424,-6.424 0.653,-13.175c7.186,-6.75 8.928,-11.541 8.711,-22.756c-0.109,-5.335 0.326,-10.126 1.197,-12.085c2.722,-6.315 0.327,-9.255 -7.73,-9.255c-2.831,0 -5.88,-0.327 -6.86,-0.654c-1.851,-0.653 -2.395,-5.335 -0.762,-6.315c1.633,-0.98 -4.573,-33.208 -7.404,-38.543c-1.088,-2.069 -0.98,-3.484 0.545,-8.057c2.068,-6.316 1.742,-7.187 -5.227,-18.075c-5.008,-7.73 -12.194,-29.288 -11.105,-33.535c1.088,-4.028 6.315,-7.73 14.699,-10.235c6.968,-2.068 7.839,-2.722 10.779,-7.403c2.831,-4.356 3.157,-5.771 2.613,-10.017c-0.545,-4.029 -1.851,-6.098 -6.969,-11.433c-4.681,-5.008 -7.948,-10.017 -13.392,-21.232c-8.819,-17.747 -10.561,-23.627 -8.493,-28.635c2.396,-5.88 2.614,-8.384 1.307,-14.264c-0.653,-3.048 -1.415,-6.532 -1.524,-7.73c-0.545,-3.593 -4.682,-10.561 -9.8,-16.55c-2.939,-3.484 -5.335,-7.513 -6.097,-10.561c-3.811,-15.244 -19.925,-18.946 -42.79,-9.908c-5.553,2.286 -11.215,4.681 -12.521,5.552c-4.029,2.505 -17.203,4.791 -27.874,4.791c-5.552,0 -15.134,0.98 -21.449,2.178c-6.315,1.198 -12.195,2.177 -13.066,2.177c-1.851,0 -17.856,-21.993 -20.251,-27.873c-1.96,-4.682 -1.96,-5.88 0.217,-5.88c2.613,0 8.493,-3.81 18.619,-12.085l9.037,-7.404l5.008,1.742c6.098,2.069 7.078,1.307 8.167,-6.424c0.871,-6.968 0.108,-8.602 -6.098,-12.848c-4.028,-2.831 -4.899,-3.92 -4.899,-6.75c0,-7.404 7.512,-14.373 21.449,-19.817l6.533,-2.504l4.791,2.504c6.641,3.484 8.601,3.267 12.303,-1.306l3.049,-3.92l-4.682,-4.791c-4.246,-4.355 -4.573,-4.899 -3.375,-7.513c2.068,-4.464 6.206,-5.444 12.521,-2.83l5.226,2.177l4.355,-2.613c3.702,-2.395 4.247,-3.266 4.247,-6.859c-0.109,-5.88 -4.138,-16.877 -10.344,-27.765c-5.335,-9.255 -5.771,-9.69 -17.094,-17.312c-6.533,-4.246 -11.759,-8.057 -11.759,-8.493c0,-0.435 1.742,-5.553 3.811,-11.214l3.701,-10.453l-2.722,-4.899c-2.613,-4.682 -2.722,-5.336 -1.524,-11.215c0.762,-3.484 2.069,-7.513 3.049,-9.037c3.702,-5.88 10.343,-12.957 12.739,-13.501c3.266,-0.871 7.948,1.197 8.71,3.81c0.654,2.069 5.88,4.247 10.344,4.247c2.395,0 3.266,-0.762 4.791,-4.682c6.315,-15.026 8.166,-20.579 7.621,-21.994c-0.435,-0.98 -2.068,-2.395 -3.811,-3.266c-2.504,-1.307 -3.157,-2.614 -3.701,-6.751c-0.436,-2.94 -1.198,-6.968 -1.743,-9.037c-1.633,-6.533 -1.197,-13.61 1.198,-16.55l2.178,-2.831l-3.593,-3.811c-4.464,-4.573 -8.929,-5.77 -13.393,-3.484c-5.008,2.613 -5.553,2.178 -5.661,-4.464l0,-5.988l-9.364,-9.691c-10.779,-11.105 -11.977,-14.372 -8.819,-23.082c2.286,-6.424 1.742,-15.135 -1.089,-18.183c-3.376,-3.92 -21.668,-13.284 -29.18,-15.135l-7.513,-1.851l0.544,-4.137c0.327,-2.178 1.634,-5.989 2.831,-8.384c1.307,-2.504 2.287,-4.791 2.287,-5.335c0,-1.742 -7.731,-6.86 -11.542,-7.731c-3.375,-0.762 -4.137,-0.435 -10.234,5.335Z" style="fill:#fff;fill-rule:nonzero;"/></svg>