<svg height="100%" viewBox="0 0 512 512" width="100%" xmlns="http://www.w3.org/2000/svg">
  <g>
    <g>
      <path d="m256 512-104.15-145.811h59.15v-126.189h90v126.189h59.15z"/>
    </g>
    <path d="m450.531 125.024c-5.039-53.232-50.01-95.024-104.531-95.024-17.9 0-35.303 4.702-51.035 13.682-25.547-27.92-60.908-43.682-98.965-43.682-71.104 0-129.521 55.254-134.648 125.068-35.596 12.437-61.352 46.392-61.352 84.932 0 49.629 41.371 90 91 90h90v-90h150v90h90c49.629 0 91-40.371 91-90 0-38.569-25.785-72.568-61.469-84.976z"/>
  </g>
</svg>
