<?xml version="1.0" encoding="UTF-8" standalone="no"?><!DOCTYPE svg PUBLIC "-//W3C//DTD SVG 1.1//EN" "http://www.w3.org/Graphics/SVG/1.1/DTD/svg11.dtd"><svg width="100%" height="100%" viewBox="0 0 712 712" version="1.1" xmlns="http://www.w3.org/2000/svg" xmlns:xlink="http://www.w3.org/1999/xlink" xml:space="preserve" xmlns:serif="http://www.serif.com/" style="fill-rule:evenodd;clip-rule:evenodd;stroke-linejoin:round;stroke-miterlimit:2;"><g><circle cx="355.855" cy="355.855" r="355.855" style="fill:#222;"/><path d="M302.335,245.985l-88.514,1.029c0,-0 -14.409,-120.419 139.975,-125.565c154.384,-5.147 136.887,95.717 136.887,131.74c-0,11.368 -2.058,124.537 -2.058,124.537l32.935,34.993l-73.075,71.017l-43.228,-48.374c0,0 -92.63,90.572 -160.559,21.614c-67.929,-68.958 -36.416,-119.935 -16.38,-145.384c21.242,-26.979 60.864,-49.791 108.741,-49.227c24.905,0.293 37.967,-0.429 43.712,-26.338c1.887,-8.507 -0.297,-13.663 -7.142,-20.02c-11.699,-10.863 -31.13,-20.51 -52.268,-3.722c-8.737,6.939 -11.657,16.13 -19.026,33.7Zm76.166,76.125c-0,0 10.5,84.5 -35,78.5c-45.5,-6 -30.565,-62.828 1.5,-77c24.772,-10.949 31.14,-3.565 33.5,-1.5Z" style="fill:#fff;"/><path d="M148.663,450.11c106.036,92.096 220.13,123.245 347.5,54l-14,-23c-24.798,-25.164 41.163,-28.43 94.5,-20c1.147,54.555 2.479,127.432 -23.5,98.5l-36.5,-24.5c-148.915,103.046 -265.918,82.455 -389.5,-50.5c-6.926,-25.564 -4.348,-41.989 23.41,-34.203" style="fill:#ff9800;"/></g></svg>