<?xml version="1.0" encoding="UTF-8" standalone="no"?><!DOCTYPE svg PUBLIC "-//W3C//DTD SVG 1.1//EN" "http://www.w3.org/Graphics/SVG/1.1/DTD/svg11.dtd"><svg width="100%" height="100%" viewBox="0 0 235 248" version="1.1" xmlns="http://www.w3.org/2000/svg" xmlns:xlink="http://www.w3.org/1999/xlink" xml:space="preserve" xmlns:serif="http://www.serif.com/" style="fill-rule:evenodd;clip-rule:evenodd;stroke-linecap:round;stroke-linejoin:round;stroke-miterlimit:1.5;"><g><g><path d="M63.779,68.507c0,-0 42,-30 85.5,-7.5" style="fill:none;stroke:#ff8000;stroke-width:20.98px;"/><path d="M29.279,49.007c0,-0 67.5,-78 160.5,-12" style="fill:none;stroke:#ff8000;stroke-width:20.98px;"/></g><g><path d="M78.779,178.757c0,-0 42,30 85.5,7.5" style="fill:none;stroke:#ff8000;stroke-width:20.98px;"/><path d="M44.279,198.257c0,-0 67.5,78 160.5,12" style="fill:none;stroke:#ff8000;stroke-width:20.98px;"/></g><g><path d="M69.201,124.121c0,6.113 -0.655,11.623 -1.965,16.529c-1.31,4.907 -3.224,9.081 -5.741,12.523c-2.517,3.442 -5.651,6.088 -9.401,7.937c-3.751,1.85 -8.04,2.774 -12.87,2.774c-2.003,0 -3.84,-0.192 -5.51,-0.578c-1.669,-0.385 -3.288,-0.976 -4.854,-1.772c-1.567,-0.796 -3.121,-1.785 -4.663,-2.967c-1.541,-1.182 -3.134,-2.569 -4.777,-4.161l-0,32.366c-0,0.513 -0.155,0.976 -0.463,1.387c-0.308,0.411 -0.835,0.757 -1.58,1.04c-0.745,0.283 -1.734,0.501 -2.966,0.655c-1.233,0.154 -2.8,0.231 -4.701,0.231c-1.901,0 -3.468,-0.077 -4.701,-0.231c-1.233,-0.154 -2.222,-0.372 -2.967,-0.655c-0.745,-0.283 -1.271,-0.629 -1.58,-1.04c-0.308,-0.411 -0.462,-0.874 -0.462,-1.387l-0,-96.019c-0,-0.514 0.128,-0.963 0.385,-1.349c0.257,-0.385 0.707,-0.706 1.349,-0.963c0.642,-0.257 1.49,-0.449 2.543,-0.578c1.053,-0.128 2.376,-0.193 3.969,-0.193c1.541,0 2.838,0.065 3.891,0.193c1.053,0.129 1.901,0.321 2.543,0.578c0.642,0.257 1.092,0.578 1.349,0.963c0.257,0.386 0.385,0.835 0.385,1.349l0,8.091c2.004,-2.055 3.969,-3.866 5.895,-5.432c1.927,-1.567 3.892,-2.877 5.896,-3.931c2.003,-1.053 4.071,-1.836 6.203,-2.35c2.132,-0.514 4.405,-0.771 6.82,-0.771c5.035,0 9.324,0.989 12.869,2.967c3.545,1.978 6.435,4.688 8.67,8.13c2.234,3.442 3.866,7.45 4.893,12.022c1.028,4.572 1.541,9.453 1.541,14.642Zm-20.19,1.387c0,-2.929 -0.218,-5.741 -0.655,-8.439c-0.437,-2.697 -1.181,-5.098 -2.235,-7.205c-1.053,-2.106 -2.44,-3.789 -4.161,-5.047c-1.721,-1.259 -3.866,-1.888 -6.435,-1.888c-1.284,-0 -2.556,0.192 -3.814,0.578c-1.259,0.385 -2.543,1.014 -3.853,1.888c-1.31,0.873 -2.659,2.003 -4.046,3.39c-1.387,1.387 -2.851,3.108 -4.392,5.163l-0,22.657c2.722,3.442 5.317,6.1 7.783,7.975c2.466,1.876 5.034,2.813 7.706,2.813c2.517,0 4.662,-0.642 6.435,-1.926c1.772,-1.285 3.223,-2.967 4.353,-5.048c1.131,-2.081 1.966,-4.431 2.505,-7.051c0.539,-2.62 0.809,-5.24 0.809,-7.86Z" style="fill-rule:nonzero;"/><path d="M154.2,124.429c0,5.856 -0.77,11.199 -2.312,16.029c-1.541,4.829 -3.878,8.99 -7.012,12.484c-3.134,3.493 -7.064,6.19 -11.791,8.091c-4.726,1.901 -10.249,2.851 -16.568,2.851c-6.113,0 -11.431,-0.847 -15.952,-2.543c-4.521,-1.695 -8.271,-4.161 -11.251,-7.398c-2.979,-3.236 -5.188,-7.218 -6.627,-11.944c-1.438,-4.727 -2.158,-10.121 -2.158,-16.183c0,-5.857 0.784,-11.213 2.351,-16.067c1.567,-4.855 3.917,-9.017 7.051,-12.484c3.134,-3.468 7.051,-6.152 11.752,-8.053c4.7,-1.901 10.21,-2.852 16.529,-2.852c6.165,0 11.508,0.835 16.029,2.505c4.521,1.67 8.259,4.123 11.213,7.359c2.954,3.237 5.15,7.218 6.588,11.945c1.439,4.726 2.158,10.146 2.158,16.26Zm-19.959,0.77c0,-3.39 -0.27,-6.511 -0.809,-9.363c-0.539,-2.851 -1.451,-5.33 -2.736,-7.436c-1.284,-2.106 -2.992,-3.75 -5.124,-4.932c-2.132,-1.182 -4.817,-1.772 -8.053,-1.772c-2.877,-0 -5.394,0.526 -7.552,1.579c-2.158,1.054 -3.93,2.595 -5.317,4.624c-1.388,2.029 -2.428,4.47 -3.121,7.321c-0.694,2.851 -1.041,6.101 -1.041,9.748c0,3.391 0.283,6.512 0.848,9.363c0.565,2.852 1.477,5.33 2.736,7.437c1.258,2.106 2.966,3.737 5.124,4.893c2.158,1.156 4.829,1.734 8.015,1.734c2.928,-0 5.471,-0.527 7.629,-1.58c2.157,-1.053 3.93,-2.581 5.317,-4.585c1.387,-2.004 2.415,-4.431 3.082,-7.282c0.668,-2.852 1.002,-6.101 1.002,-9.749Z" style="fill-rule:nonzero;"/><path d="M234.729,159.492c0,0.565 -0.128,1.04 -0.385,1.425c-0.257,0.386 -0.693,0.707 -1.31,0.964c-0.616,0.257 -1.451,0.436 -2.504,0.539c-1.054,0.103 -2.351,0.154 -3.892,0.154c-1.644,0 -2.98,-0.051 -4.007,-0.154c-1.028,-0.103 -1.863,-0.282 -2.505,-0.539c-0.642,-0.257 -1.104,-0.578 -1.387,-0.964c-0.282,-0.385 -0.424,-0.86 -0.424,-1.425l0,-7.629c-3.544,3.801 -7.256,6.755 -11.135,8.862c-3.879,2.106 -8.181,3.159 -12.908,3.159c-5.24,0 -9.671,-1.014 -13.293,-3.044c-3.622,-2.029 -6.576,-4.765 -8.862,-8.207c-2.286,-3.442 -3.943,-7.462 -4.971,-12.06c-1.027,-4.598 -1.541,-9.44 -1.541,-14.526c0,-6.113 0.655,-11.61 1.965,-16.491c1.31,-4.881 3.224,-9.042 5.741,-12.484c2.518,-3.442 5.652,-6.088 9.402,-7.937c3.75,-1.85 8.066,-2.775 12.946,-2.775c3.853,0 7.347,0.784 10.481,2.351c3.133,1.567 6.242,3.866 9.324,6.897l0,-37.221c0,-0.514 0.141,-0.976 0.424,-1.387c0.282,-0.411 0.796,-0.758 1.541,-1.04c0.745,-0.283 1.734,-0.501 2.967,-0.655c1.233,-0.155 2.8,-0.232 4.701,-0.232c1.901,0 3.468,0.077 4.701,0.232c1.233,0.154 2.209,0.372 2.928,0.655c0.719,0.282 1.233,0.629 1.541,1.04c0.308,0.411 0.462,0.873 0.462,1.387l0,101.105Zm-19.265,-45.929c-2.774,-3.493 -5.433,-6.165 -7.976,-8.014c-2.543,-1.85 -5.201,-2.774 -7.976,-2.774c-2.517,-0 -4.688,0.629 -6.511,1.888c-1.824,1.258 -3.288,2.941 -4.393,5.047c-1.104,2.106 -1.926,4.457 -2.466,7.051c-0.539,2.595 -0.809,5.253 -0.809,7.976c0,2.877 0.231,5.677 0.694,8.4c0.462,2.723 1.22,5.15 2.273,7.282c1.053,2.132 2.453,3.84 4.2,5.125c1.746,1.284 3.956,1.926 6.627,1.926c1.336,0 2.633,-0.192 3.892,-0.578c1.258,-0.385 2.543,-1.014 3.853,-1.888c1.31,-0.873 2.658,-2.016 4.045,-3.429c1.388,-1.413 2.903,-3.147 4.547,-5.202l0,-22.81Z" style="fill-rule:nonzero;"/></g></g></svg>