<?xml version="1.0" encoding="UTF-8" standalone="no"?><!DOCTYPE svg PUBLIC "-//W3C//DTD SVG 1.1//EN" "http://www.w3.org/Graphics/SVG/1.1/DTD/svg11.dtd"><svg width="100%" height="100%" viewBox="0 0 305 78" version="1.1" xmlns="http://www.w3.org/2000/svg" xmlns:xlink="http://www.w3.org/1999/xlink" xml:space="preserve" xmlns:serif="http://www.serif.com/" style="fill-rule:evenodd;clip-rule:evenodd;stroke-linejoin:round;stroke-miterlimit:2;"><g><g><path d="M107.188,41.413l-9.51,-16.126l-0.14,0l-2.69,16.126l-7.562,0l5.799,-34.287l7.562,0l-2.459,14.383l0.139,0l13.036,-14.383l9.836,0l-16.098,16.32l11.69,17.967l-9.603,0Z" style="fill:#008ed6;fill-rule:nonzero;"/><path d="M118.415,41.413l6.17,-36.611l7.561,0l-6.216,36.611l-7.516,0Z" style="fill:#008ed6;fill-rule:nonzero;"/><path d="M132.146,41.413l4.037,-24.117l7.468,0l-4.129,24.117l-7.376,0Zm13.083,-32.204c0,0.646 -0.109,1.243 -0.325,1.792c-0.216,0.549 -0.518,1.041 -0.905,1.477c-0.386,0.435 -0.842,0.774 -1.368,1.017c-0.526,0.242 -1.098,0.363 -1.717,0.363c-1.175,0 -2.142,-0.363 -2.899,-1.089c-0.757,-0.727 -1.136,-1.655 -1.136,-2.785c0,-1.324 0.425,-2.429 1.275,-3.317c0.851,-0.888 1.894,-1.332 3.132,-1.332c1.144,0 2.087,0.371 2.829,1.113c0.743,0.743 1.114,1.663 1.114,2.761Z" style="fill:#008ed6;fill-rule:nonzero;"/><path d="M148.94,22.284c0.124,-0.614 0.255,-1.404 0.395,-2.373c0.139,-0.968 0.239,-1.84 0.301,-2.614l7.098,0c-0.031,0.386 -0.085,0.944 -0.163,1.67c-0.077,0.726 -0.147,1.332 -0.208,1.816l0.093,0c0.34,-0.517 0.742,-1.025 1.206,-1.525c0.464,-0.501 0.982,-0.945 1.554,-1.332c0.572,-0.387 1.214,-0.694 1.925,-0.921c0.711,-0.225 1.485,-0.339 2.32,-0.339c1.825,0 3.286,0.396 4.384,1.187c1.098,0.791 1.863,1.816 2.296,3.075c0.897,-1.259 1.964,-2.284 3.201,-3.075c1.237,-0.791 2.722,-1.187 4.454,-1.187c1.33,0 2.474,0.21 3.433,0.63c0.959,0.42 1.755,0.985 2.389,1.695c0.634,0.711 1.098,1.526 1.391,2.445c0.294,0.921 0.441,1.865 0.441,2.834c0,0.387 -0.015,0.775 -0.046,1.162c-0.031,0.387 -0.077,0.759 -0.139,1.113l-2.551,14.868l-7.423,0l2.18,-13.076c0.155,-0.742 0.232,-1.42 0.232,-2.033c0,-0.937 -0.232,-1.72 -0.696,-2.349c-0.464,-0.629 -1.237,-0.944 -2.319,-0.944c-0.65,0 -1.238,0.153 -1.763,0.459c-0.526,0.307 -0.99,0.711 -1.392,1.212c-0.402,0.5 -0.727,1.081 -0.974,1.743c-0.247,0.661 -0.433,1.332 -0.557,2.01l-2.18,12.978l-7.47,0l2.32,-13.802c0.093,-0.484 0.14,-0.936 0.14,-1.356c0,-0.936 -0.225,-1.711 -0.673,-2.324c-0.449,-0.614 -1.152,-0.92 -2.111,-0.92c-1.268,0 -2.296,0.524 -3.085,1.573c-0.789,1.049 -1.307,2.3 -1.554,3.753l-2.227,13.076l-7.423,0l3.201,-19.129Z" style="fill:#008ed6;fill-rule:nonzero;"/><path d="M211.523,24.367c0,0.451 -0.024,0.936 -0.07,1.452c-0.047,0.517 -0.116,1.017 -0.209,1.502l-1.578,9.394c-0.154,0.84 -0.27,1.695 -0.347,2.567c-0.078,0.871 -0.116,1.582 -0.116,2.131l-6.588,0c0,-0.355 0.016,-0.767 0.046,-1.235c0.032,-0.469 0.078,-0.912 0.14,-1.332l-0.093,0c-1.701,2.099 -4.052,3.148 -7.052,3.148c-0.804,0 -1.631,-0.105 -2.481,-0.315c-0.851,-0.21 -1.624,-0.565 -2.32,-1.065c-0.696,-0.5 -1.26,-1.163 -1.694,-1.986c-0.433,-0.823 -0.649,-1.832 -0.649,-3.026c0,-1.938 0.464,-3.519 1.392,-4.746c0.928,-1.227 2.142,-2.18 3.642,-2.857c1.5,-0.678 3.201,-1.147 5.103,-1.405c1.902,-0.258 3.811,-0.388 5.729,-0.388c0.061,-0.29 0.093,-0.516 0.093,-0.678l0,-0.435c0,-0.936 -0.317,-1.623 -0.951,-2.058c-0.635,-0.436 -1.523,-0.654 -2.668,-0.654c-1.051,0 -2.11,0.21 -3.178,0.63c-1.067,0.419 -2.033,0.968 -2.899,1.646l-3.062,-4.455c1.392,-1.163 2.992,-2.058 4.802,-2.688c1.809,-0.629 3.595,-0.944 5.358,-0.944c1.391,0 2.675,0.153 3.851,0.46c1.175,0.307 2.187,0.782 3.038,1.428c0.85,0.646 1.523,1.453 2.018,2.422c0.495,0.968 0.742,2.131 0.742,3.487Zm-8.211,6.489c-0.928,0 -1.871,0.04 -2.83,0.121c-0.958,0.08 -1.817,0.25 -2.575,0.508c-0.757,0.259 -1.383,0.613 -1.878,1.066c-0.495,0.452 -0.743,1.049 -0.743,1.791c0,0.969 0.317,1.623 0.951,1.962c0.635,0.339 1.338,0.508 2.111,0.508c1.423,0 2.613,-0.46 3.573,-1.38c0.958,-0.92 1.561,-2.058 1.808,-3.414l0.232,-1.162l-0.649,0Z" style="fill:#008ed6;fill-rule:nonzero;"/><path d="M214.584,41.413l6.17,-36.611l7.562,0l-6.216,36.611l-7.516,0Z" style="fill:#008ed6;fill-rule:nonzero;"/><path d="M228.316,41.413l4.036,-24.117l7.469,0l-4.129,24.117l-7.376,0Zm13.082,-32.204c0,0.646 -0.108,1.243 -0.325,1.792c-0.216,0.549 -0.517,1.041 -0.904,1.477c-0.386,0.435 -0.843,0.774 -1.368,1.017c-0.526,0.242 -1.098,0.363 -1.717,0.363c-1.175,0 -2.142,-0.363 -2.899,-1.089c-0.758,-0.727 -1.137,-1.655 -1.137,-2.785c0,-1.324 0.426,-2.429 1.276,-3.317c0.851,-0.888 1.894,-1.332 3.131,-1.332c1.145,0 2.088,0.371 2.83,1.113c0.743,0.743 1.113,1.663 1.113,2.761Z" style="fill:#008ed6;fill-rule:nonzero;"/><path d="M244.599,33.713c0.588,0.904 1.369,1.59 2.343,2.058c0.974,0.468 1.972,0.702 2.993,0.702c0.989,0 1.785,-0.193 2.388,-0.581c0.603,-0.387 0.906,-0.92 0.906,-1.598c0,-0.645 -0.28,-1.146 -0.836,-1.501c-0.556,-0.356 -1.376,-0.71 -2.458,-1.066c-1.083,-0.322 -2.034,-0.685 -2.853,-1.089c-0.82,-0.404 -1.509,-0.872 -2.065,-1.405c-0.557,-0.532 -0.974,-1.146 -1.253,-1.84c-0.278,-0.694 -0.417,-1.509 -0.417,-2.445c0,-1.324 0.286,-2.502 0.858,-3.536c0.573,-1.032 1.33,-1.912 2.274,-2.639c0.942,-0.726 2.049,-1.275 3.316,-1.646c1.268,-0.371 2.598,-0.557 3.99,-0.557c1.794,0 3.472,0.315 5.033,0.944c1.563,0.63 2.807,1.558 3.735,2.785l-4.686,4.116c-0.433,-0.646 -1.028,-1.179 -1.786,-1.598c-0.758,-0.42 -1.662,-0.63 -2.714,-0.63c-0.804,0 -1.538,0.161 -2.203,0.485c-0.666,0.322 -0.998,0.871 -0.998,1.646c0,0.549 0.248,0.976 0.743,1.283c0.495,0.307 1.252,0.605 2.273,0.896c2.165,0.614 3.874,1.461 5.126,2.543c1.253,1.081 1.879,2.655 1.879,4.721c0,1.453 -0.302,2.72 -0.905,3.802c-0.603,1.081 -1.392,1.969 -2.366,2.663c-0.974,0.695 -2.087,1.211 -3.34,1.55c-1.253,0.339 -2.529,0.508 -3.828,0.508c-2.133,0 -4.035,-0.371 -5.706,-1.114c-1.67,-0.742 -3.03,-1.759 -4.082,-3.051l4.639,-4.406Z" style="fill:#008ed6;fill-rule:nonzero;"/><path d="M263.435,23.156l1.02,-5.86l3.665,0l1.067,-6.392l7.237,0l-1.067,6.392l4.917,0l-1.02,5.86l-4.779,0l-1.67,9.443c-0.031,0.226 -0.054,0.46 -0.069,0.702c-0.016,0.243 -0.023,0.444 -0.023,0.606c0,0.807 0.216,1.356 0.649,1.646c0.433,0.291 1.021,0.436 1.763,0.436c0.371,0 0.735,-0.033 1.09,-0.097c0.356,-0.065 0.673,-0.129 0.951,-0.194l-0.696,5.569c-0.432,0.194 -1.044,0.364 -1.832,0.509c-0.789,0.145 -1.539,0.218 -2.25,0.218c-2.227,0 -3.982,-0.468 -5.266,-1.405c-1.283,-0.936 -1.925,-2.421 -1.925,-4.455c0,-0.387 0.023,-0.831 0.07,-1.332c0.046,-0.5 0.116,-0.976 0.208,-1.428l1.764,-10.218l-3.804,0Z" style="fill:#008ed6;fill-rule:nonzero;"/><path d="M287.744,31.437c-0.031,0.129 -0.047,0.274 -0.047,0.436c0,0.678 0.147,1.283 0.441,1.816c0.293,0.533 0.68,0.984 1.16,1.355c0.479,0.372 1.02,0.655 1.623,0.848c0.603,0.194 1.23,0.291 1.879,0.291c1.175,0 2.211,-0.226 3.108,-0.678c0.897,-0.452 1.701,-1.066 2.413,-1.84l4.685,3.825c-1.484,1.647 -3.139,2.833 -4.963,3.56c-1.825,0.726 -3.789,1.09 -5.892,1.09c-1.608,0 -3.101,-0.234 -4.477,-0.703c-1.376,-0.468 -2.575,-1.162 -3.596,-2.082c-1.02,-0.92 -1.824,-2.058 -2.412,-3.414c-0.588,-1.356 -0.881,-2.906 -0.881,-4.649c0,-2.067 0.347,-3.996 1.043,-5.787c0.696,-1.792 1.655,-3.35 2.876,-4.674c1.222,-1.323 2.684,-2.364 4.385,-3.123c1.701,-0.759 3.572,-1.138 5.613,-1.138c1.516,0 2.899,0.226 4.152,0.678c1.252,0.452 2.327,1.105 3.224,1.961c0.897,0.856 1.593,1.913 2.088,3.172c0.494,1.259 0.742,2.712 0.742,4.359c0,0.581 -0.054,1.315 -0.162,2.203c-0.109,0.888 -0.255,1.719 -0.441,2.494l-16.562,0Zm10.531,-4.746c0.031,-0.161 0.047,-0.323 0.047,-0.485l0,-0.483c0,-1.066 -0.364,-1.954 -1.091,-2.664c-0.727,-0.711 -1.771,-1.065 -3.131,-1.065c-0.835,0 -1.585,0.153 -2.25,0.46c-0.665,0.306 -1.245,0.686 -1.74,1.138c-0.494,0.451 -0.896,0.953 -1.206,1.501c-0.309,0.549 -0.526,1.081 -0.65,1.598l10.021,0Z" style="fill:#008ed6;fill-rule:nonzero;"/><circle cx="38.52" cy="38.52" r="38.52" style="fill:#008ed6;"/><clipPath id="_clip1"><path d="M0.15,41.579c24.203,-5.031 50.053,-5.142 76.529,2.231l2.496,23.052l-38.348,14.036l-35.84,-9.855c-3.65,-9.854 -6.429,-19.611 -4.837,-29.464Z"/></clipPath><g clip-path="url(#_clip1)"><circle cx="38.52" cy="38.52" r="38.52" style="fill:#00be4f;"/></g><path d="M25.891,14.212c11.491,16.128 9.705,32.125 0.195,48.047c-8.755,-14.348 -12.425,-29.672 -0.195,-48.046Z" style="fill:#fff;"/><path d="M33.101,38.309c16.697,-0.871 25.331,-9.481 26.624,-25.139c-15.414,1.585 -25.371,8.841 -26.624,25.139Z" style="fill:#fff;"/><path d="M33.085,37.285c1.368,16.676 10.605,25.066 27.007,25.911c-2.08,-15.373 -9.937,-25.125 -27.007,-25.911Z" style="fill:#fff;"/><text x="81.854px" y="70.328px" style="font-family:'Helvetica-Oblique', 'Helvetica';font-style:italic;font-size:30.701px;fill:#00be4f;">Deutschland</text></g></g></svg>