<?xml version="1.0" encoding="UTF-8" standalone="no"?>
<!DOCTYPE svg PUBLIC "-//W3C//DTD SVG 1.1//EN" "http://www.w3.org/Graphics/SVG/1.1/DTD/svg11.dtd">
<svg width="100%" height="100%" viewBox="0 0 1534 1131" version="1.1" xmlns="http://www.w3.org/2000/svg" xmlns:xlink="http://www.w3.org/1999/xlink" xml:space="preserve" xmlns:serif="http://www.serif.com/" style="fill-rule:evenodd;clip-rule:evenodd;stroke-linejoin:round;stroke-miterlimit:2;">
    <g transform="matrix(1.16445,0,0,1.16445,-161.939,-839.118)">
        <g>
            <path d="M613.74,802.407L179.493,987.43L1023.81,1402.85L1455.85,1214.68L613.74,802.407Z" style="fill:rgb(171,171,171);"/>
            <path d="M179.493,987.43L1023.81,1402.85L1029.11,1632.46L139.069,1203.65C140.394,1104.15 140.669,998.228 179.493,987.43Z" style="fill:rgb(154,154,154);"/>
            <path d="M1029.11,1632.46L1023.81,1402.85L1455.85,1215.34L1446.61,1410.71C1451.89,1480.45 1183.98,1566.49 1029.11,1632.46Z" style="fill:rgb(164,164,164);"/>
            <path d="M247.172,1252.91C247.787,1213.62 251.74,1182.73 265.233,1175.88L885.861,1471.38L868.299,1554.57L247.172,1252.91Z" style="fill:rgb(128,128,128);"/>
            <path d="M742.574,1577.69C759.416,1542.76 821.298,1489.86 869.591,1470.3L869.104,1474.7C860.433,1482.99 849.854,1493.39 838.812,1504.93C811.654,1533.32 781.699,1568.62 770.467,1596.44L742.574,1577.69Z" style="fill:rgb(225,225,225);"/>
            <path d="M668.085,1691.74L147.39,1421.49C240.584,1352.08 238.028,1273.04 345.509,1215.89L878.649,1466.53C781.711,1519.42 715.547,1597.83 668.085,1691.74Z" style="fill:rgb(243,243,243);"/>
            <path d="M667.617,863.773C637.576,873.001 613.916,886.035 596.564,902.83C773.49,1012.6 971.618,1105.12 1182.05,1187.64C1199,1165.2 1219.37,1140.27 1208.14,1138.37C999.463,1088.03 842.297,963.246 667.617,863.773Z" style="fill:rgb(188,188,188);"/>
            <path d="M692.917,908.78C724.397,822.946 788.828,768.153 860.961,720.615C952.368,800.948 1122.91,875.706 1307.42,953.649C1235.06,990.427 1192.29,1058.71 1168.26,1146.94C987.117,1042.22 764.967,969.857 692.917,908.78Z" style="fill:rgb(222,222,222);"/>
        </g>
        <g>
            <g>
                <path d="M624.612,1407.02C578.885,1463.55 522.502,1465.96 457.897,1426.59C503.35,1395.51 556.012,1381.92 624.612,1407.02Z" style="fill:rgb(96,142,212);"/>
                <path d="M457.897,1426.59C521.216,1450.53 542.672,1495 528.476,1556.95C475.796,1538.09 441.154,1504.02 457.897,1426.59Z" style="fill:rgb(96,142,212);"/>
            </g>
        </g>
        <g transform="matrix(1,0,0,1,5.10605,2.77796)">
            <path d="M480.602,1325.75C395.715,1365.76 357.233,1420.6 357.601,1487.85C447.887,1469.37 483.781,1411.65 480.602,1325.75Z" style="fill:rgb(93,176,81);"/>
        </g>
    </g>
</svg>
