<?xml version="1.0" encoding="UTF-8" standalone="no"?>
<!DOCTYPE svg PUBLIC "-//W3C//DTD SVG 1.1//EN" "http://www.w3.org/Graphics/SVG/1.1/DTD/svg11.dtd">
<svg width="100%" height="100%" viewBox="0 0 958 915" version="1.1" xmlns="http://www.w3.org/2000/svg" xmlns:xlink="http://www.w3.org/1999/xlink" xml:space="preserve" xmlns:serif="http://www.serif.com/" style="fill-rule:evenodd;clip-rule:evenodd;stroke-linecap:round;stroke-linejoin:round;stroke-miterlimit:1.5;">
    <g transform="matrix(0.942801,0,0,0.942801,-153.191,-778.007)">
        <g transform="matrix(1,0,0,1,-764.989,484.803)">
            <path d="M1211.19,1133.26C1217.77,1174.39 1210.59,1207.67 1185.31,1230.65C1272.48,1258.67 1346.96,1297.78 1524.4,1246.87L1532.17,1310.83C1574.98,1274.12 1615.41,1234.24 1646.39,1181.75C1620.8,1144.82 1566.46,1106.05 1502.07,1066.64L1503.26,1136.52C1470.85,1162.58 1338.82,1147 1211.19,1133.26Z" style="fill:rgb(150,201,141);"/>
        </g>
        <g>
            <path d="M191.539,916.829C196.744,1104.79 200.386,1283.38 202.537,1453.02C199.826,1485.25 180.483,1487.59 383.769,1488.18C565.225,1488.72 851.393,1492.81 1092.46,1497.35C1147.38,1498.38 1146.9,1486.17 1148.47,1429.56C1151.63,1315.26 1102.44,1093.38 1109.38,948.076C1120.32,863.627 856.206,895.164 587.957,892.003C370.532,889.441 190.097,864.793 191.539,916.829Z" style="fill:rgb(218,218,218);"/>
            <path d="M209.98,1480.85L505.47,1185.03L814.043,1187.6L1140.67,1488.37C1122.64,1508.4 1005.43,1496.4 937.94,1496.74C584.865,1498.49 236.405,1492.7 209.98,1480.85Z" style="fill:rgb(212,212,212);"/>
            <path d="M191.594,921.912L668.468,1324.29L1102.22,925.63C1076.88,862.146 674.155,885.6 301.969,882.4C263.733,882.071 188.803,878.821 191.594,921.912Z" style="fill:rgb(226,226,226);"/>
        </g>
        <g>
            <path d="M400.913,989.144L490.164,991.898" style="fill:none;stroke:rgb(97,158,187);stroke-width:24.31px;"/>
            <path d="M386.674,949.483L564.692,953.761" style="fill:none;stroke:rgb(97,158,187);stroke-width:24.31px;"/>
            <g transform="matrix(1,0,0,1,-1.91532,10.591)">
                <path d="M406.249,1013.32L439.515,1016.6" style="fill:none;stroke:rgb(97,158,187);stroke-width:24.31px;"/>
            </g>
        </g>
    </g>
</svg>
