<?xml version="1.0" encoding="UTF-8" standalone="no"?>
<!DOCTYPE svg PUBLIC "-//W3C//DTD SVG 1.1//EN" "http://www.w3.org/Graphics/SVG/1.1/DTD/svg11.dtd">
<svg width="100%" height="100%" viewBox="0 0 764 789" version="1.1" xmlns="http://www.w3.org/2000/svg" xmlns:xlink="http://www.w3.org/1999/xlink" xml:space="preserve" xmlns:serif="http://www.serif.com/" style="fill-rule:evenodd;clip-rule:evenodd;stroke-linecap:square;stroke-linejoin:round;stroke-miterlimit:1.5;">
    <g transform="matrix(1,0,0,1,-434.793,-934.733)">
        <path d="M1029.06,937.863C961.861,1238.15 1014.74,1265.58 1009.53,1447.44C1007.21,1528.43 1028.6,1603.21 1054.63,1684C1048.86,1703.74 929.97,1715.07 818.35,1719.25C680.534,1724.42 554.27,1727.37 483.435,1710.75C404.716,1619.3 451.297,1371.49 435.531,1170.42C428.118,1075.89 478.428,1003.29 501.602,964.27C644.888,943.488 801.973,927.788 1029.06,937.863Z" style="fill:rgb(247,247,247);"/>
        <g>
            <path d="M875.728,1391.4C875.728,1391.4 867.026,1408.21 874.237,1403.97C881.447,1399.73 873.728,1399.47 877.148,1398.77" style="fill:none;stroke:rgb(50,50,50);stroke-width:8.33px;"/>
            <path d="M861.843,1300.34C863.9,1327.69 867.132,1348.88 872.194,1360.5" style="fill:none;stroke:rgb(50,50,50);stroke-width:8.33px;"/>
            <path d="M826.641,1315.12C826.641,1315.12 822.81,1319.06 824.802,1322.37" style="fill:none;stroke:rgb(50,50,50);stroke-width:8.33px;"/>
            <path d="M798.138,1362.6C817.507,1360.88 816.102,1338.44 797.054,1347.09C784.68,1373.63 800.921,1387.03 821.008,1377.97C834.763,1367.88 832.611,1358.16 831.614,1348.41C831.681,1358.74 832.234,1368.63 839.591,1372.49" style="fill:none;stroke:rgb(50,50,50);stroke-width:8.33px;"/>
            <path d="M715.937,1352.09C690.295,1359.91 706.646,1398.13 722.373,1378.89C728.776,1360.17 742.529,1383.74 754.958,1383.65C779.426,1391.63 779.406,1371.66 775.862,1359.34C771.862,1345.44 766.08,1347.95 756.592,1349.12C752.997,1353.49 746.8,1346.9 748.007,1330.44C746.904,1346.58 747.462,1362.39 750.574,1377.72C752.884,1384.22 720.38,1371.11 730.718,1358.64C737.896,1349.98 715.212,1354.33 715.937,1352.09Z" style="fill:none;stroke:rgb(50,50,50);stroke-width:8.33px;"/>
            <path d="M683.933,1329.94C679.275,1342.51 676.753,1356.49 697.74,1386.05C692.042,1375.82 686.369,1363.88 680.527,1363.18C683.51,1392.18 665.778,1394.22 658.277,1387.5C646.095,1376.57 652.836,1344.81 676.842,1361.1" style="fill:none;stroke:rgb(50,50,50);stroke-width:8.33px;"/>
            <path d="M774.983,1208.45C777.622,1229.84 774.487,1248.19 777.371,1274.65C812.128,1289.06 820.465,1236.57 776.372,1246.95" style="fill:none;stroke:rgb(50,50,50);stroke-width:8.33px;"/>
            <path d="M822.185,1239.01C821.228,1249.04 822.392,1259.87 826.593,1271.84" style="fill:none;stroke:rgb(50,50,50);stroke-width:8.33px;"/>
            <path d="M820.547,1217.25C820.547,1217.25 817.278,1219.52 820.848,1220.49" style="fill:none;stroke:rgb(50,50,50);stroke-width:8.33px;"/>
            <path d="M838.431,1231.51L844.246,1265.67C840.059,1225.81 871.013,1213.37 869.426,1267.83" style="fill:none;stroke:rgb(50,50,50);stroke-width:8.33px;"/>
            <path d="M695.604,1218.09L698.487,1277.79C690.67,1238.61 726.089,1234.92 722.683,1279.81" style="fill:none;stroke:rgb(50,50,50);stroke-width:8.33px;"/>
            <path d="M684.336,1282.63C644.235,1304.8 643.784,1232.52 674.161,1253.66" style="fill:none;stroke:rgb(50,50,50);stroke-width:8.33px;"/>
            <path d="M631.06,1213.08L629.292,1293.9" style="fill:none;stroke:rgb(50,50,50);stroke-width:8.33px;"/>
        </g>
        <g>
            <path d="M496.483,1213.92C492.354,1245.71 487.625,1277.26 491.956,1312.59C531.975,1305.17 559.872,1303.77 576.303,1308.08C579.196,1285.48 581.376,1259.29 578.933,1209.92C558.813,1209.84 534.198,1210.61 496.483,1213.92Z" style="fill:rgb(231,231,231);"/>
            <path d="M513.663,1239.05C511.568,1242.93 504.189,1249.08 504.639,1253.13C506.224,1267.39 528.029,1278.82 533.304,1292.63C536.705,1301.53 574.885,1214.18 597.198,1172.8C591.605,1169.81 588.02,1164.15 581.209,1162.42C571.534,1177.46 551.214,1221.14 532.572,1259.76C522.785,1243.78 517.285,1232.01 513.663,1239.05Z" style="fill:rgb(93,176,81);"/>
        </g>
        <g>
            <g transform="matrix(1,0,0,1,-1.69481,-0.166961)">
                <path d="M867.403,1004.03C864.941,1002.35 880.253,970.481 907.455,972.705C911.909,1005.83 870.936,1011.67 867.403,1004.03Z" style="fill:rgb(96,142,212);"/>
                <path d="M909.645,1039.29C879.325,1041.22 866.539,1028.38 867.403,1004.03C894.697,1007.76 907.477,1020.3 909.645,1039.29Z" style="fill:rgb(96,142,212);"/>
            </g>
            <path d="M852.087,975.373C874.161,998.151 871.723,1020.93 851.24,1043.71C835.656,1020.63 834.38,997.821 852.087,975.373Z" style="fill:rgb(93,176,81);"/>
        </g>
        <g>
            <path d="M512.284,1574.01L509.333,1611.67L543.941,1609.62L543.575,1576.06L512.284,1574.01Z" style="fill:rgb(231,231,231);"/>
            <g transform="matrix(1.59364,0,0,1.59364,-312.282,-945.272)">
                <path d="M515.055,1606.52L539.502,1579.72" style="fill:none;stroke:black;stroke-width:9.15px;"/>
                <path d="M518.007,1578.69L540.121,1605.62" style="fill:none;stroke:black;stroke-width:9.15px;"/>
            </g>
        </g>
        <path d="M521.533,1634.98C611.004,1616.56 803.544,1629.2 962.895,1613.37" style="fill:none;stroke:black;stroke-width:6.25px;"/>
        <path d="M573.611,1669.13C610.943,1608.83 655.644,1552.89 718.984,1507.99C698.962,1546.42 691.95,1584.86 691.256,1623.3C748.789,1570.11 779.616,1548.17 758.553,1586.95C746.304,1616.72 754.289,1620.25 778.454,1602.79C795.734,1588.38 803.692,1586.64 800.665,1599.82C793.758,1614.12 800.086,1613.36 819.65,1597.54C834.518,1583.47 838.066,1586.57 835.887,1598.37C831.448,1613.24 843.902,1605.57 856.908,1597.17C866.583,1586.13 871.666,1584.68 870.039,1597.25C864.688,1606.68 874.183,1604.19 887.149,1598.91C908.165,1585.85 883.328,1616.17 928.406,1594.68" style="fill:none;stroke:rgb(83,161,193);stroke-width:25px;"/>
        <g transform="matrix(1.1398,0,0,1.1398,-141.402,-213.81)">
            <path d="M933.174,1595.94L949.297,1519.3C964.68,1524.54 978.216,1534.62 990.071,1549.11L933.174,1595.94Z" style="fill:rgb(166,166,166);"/>
            <g transform="matrix(0.627811,0,0,0.609726,347.317,622.855)">
                <path d="M933.174,1595.94L949.297,1519.3C964.68,1524.54 978.216,1534.62 990.071,1549.11L933.174,1595.94Z" style="fill:rgb(178,178,178);"/>
            </g>
            <path d="M1110.89,1316.19L1130.42,1259.96L1175.44,1288.96L1139.66,1329.38L1132.61,1325.19L1160.01,1295.77L1135.27,1279.17L1118.13,1316.37L1110.89,1316.19Z"/>
            <path d="M1135.1,1347.01L1154.62,1348.49C1119.89,1381.78 1094.95,1423.5 1071.35,1466.37L1079.04,1471.92C1089.37,1457.23 1120.67,1405.92 1133.39,1388.65C1152.43,1362.81 1188.69,1338.63 1137.83,1335.35L1135.1,1347.01Z"/>
            <path d="M949.297,1519.3C965.018,1525.46 978.609,1535.4 990.071,1549.11L1145.28,1339.68C1137.23,1317.31 1122.05,1309.23 1102.73,1309.47L949.297,1519.3Z" style="fill:rgb(178,62,107);"/>
        </g>
    </g>
</svg>
