<?xml version="1.0" encoding="UTF-8" standalone="no"?>
<!DOCTYPE svg PUBLIC "-//W3C//DTD SVG 1.1//EN" "http://www.w3.org/Graphics/SVG/1.1/DTD/svg11.dtd">
<svg width="100%" height="100%" viewBox="0 0 561 1910" version="1.1" xmlns="http://www.w3.org/2000/svg" xmlns:xlink="http://www.w3.org/1999/xlink" xml:space="preserve" xmlns:serif="http://www.serif.com/" style="fill-rule:evenodd;clip-rule:evenodd;stroke-linejoin:round;stroke-miterlimit:2;">
    <g transform="matrix(4.16667,0,0,4.16667,-2145.46,-60.0989)">
        <path d="M609.852,98.077C609.78,98.037 609.708,98.006 609.635,97.967C604.224,79.896 608.035,61.327 606.65,42.817C605.902,32.815 601.511,14.4 589.997,16.77C583.687,12.382 572.679,14.746 566.877,18.965C559.777,24.128 557.067,33.889 556.109,42.154C554.836,53.141 556.781,62.761 559.275,73.366C562.093,85.343 560.135,98.733 557.17,110.43C556.793,111.916 558.93,112.465 559.434,111.055C559.452,111.005 559.465,110.954 559.482,110.904C566.976,107.429 574.224,103.789 582.157,101.259C590.541,98.586 600.174,96.127 608.323,100.693C610.03,101.65 611.559,99.028 609.852,98.077Z" style="fill:rgb(67,68,68);fill-rule:nonzero;"/>
        <path d="M565.019,95.987C559.929,100.866 553.415,101.468 547.241,104.235C542.769,106.239 540.422,110.666 539.053,115.097C536.718,122.653 537.46,130.958 539.167,139.016C539.375,145.448 539.88,151.87 539.875,158.318C539.87,164.545 539.524,170.722 539.102,176.911C535.298,188.568 534.101,201.141 533.724,213.294C533.485,221.012 533.149,228.664 531.317,236.2C530.17,240.918 528.585,245.172 529.214,249.764C527.402,255.159 524.525,260.186 523.046,265.763C521.705,270.817 524.397,273.184 527.462,277.155C527.759,277.539 528.189,277.65 528.578,277.583C528.618,277.787 528.643,277.994 528.686,278.197C529.322,281.149 531.173,284.099 532.391,286.838C532.767,287.683 533.848,287.263 534.118,286.612C535.213,283.969 535.327,281.668 534.723,278.889C534.007,275.597 533.467,272.799 535.232,269.542C535.398,269.236 535.573,268.934 535.741,268.629C535.668,271.753 535.973,275.121 538.781,276.644C539.438,277 540.348,276.562 540.321,275.76C540.158,270.976 542.208,267.052 542.522,262.422C542.693,259.902 542.041,257.022 541.212,254.262C541.509,246.557 541.897,238.957 543.989,231.449C546.281,223.224 549.834,215.44 551.966,207.15C553.928,199.52 555.544,192.245 554.89,184.337C554.242,176.494 554.605,169.447 556.193,162.039C556.77,162.292 557.589,161.999 557.649,161.16C558.393,150.759 558.272,140.327 559.208,129.925C560.198,118.92 562.789,108.401 565.073,97.636C565.103,97.492 565.082,97.374 565.04,97.271C565.218,96.987 565.401,96.709 565.554,96.4C565.725,96.058 565.307,95.711 565.019,95.987Z" style="fill:rgb(252,200,171);fill-rule:nonzero;"/>
        <path d="M640.642,240.904C640.134,236.19 640.028,231.435 639.999,226.698C639.902,210.854 642.615,194.585 640.515,178.796C640.691,176.884 640.844,174.972 640.935,173.062C641.116,169.274 639.771,165.754 638.579,162.2C637.484,153.012 637.115,143.884 637.208,134.625C637.302,125.377 638.322,115.92 637.246,106.715C636.625,101.409 634.309,94.053 629.51,90.95C622.092,86.153 612.965,90.78 604.849,88.419C604.722,88.212 604.601,88.001 604.473,87.796C604.251,87.442 603.66,87.638 603.724,88.036C603.558,87.973 603.392,87.913 603.227,87.843C602.816,87.669 602.481,88.196 602.871,88.454C603.286,88.729 603.708,88.97 604.133,89.196C607.374,98.192 611.593,106.869 615.076,115.776C618.852,125.436 619.372,135.388 620.594,145.56C620.677,146.248 621.254,146.597 621.79,146.584C623.028,153.872 623.545,161.119 623.926,168.626C624.286,175.706 625.456,182.935 626.773,189.995C626.767,194.456 626.886,198.918 627.029,203.354C627.211,209 627.621,214.629 628.109,220.256C628.576,225.636 626.965,229.955 625.869,235.04C625.652,235.097 625.483,235.263 625.517,235.555C626.799,246.586 628.74,257.429 629.291,268.549C629.369,270.125 631.51,270.337 632.013,269.172C636.777,264.158 640.121,258.167 641.433,251.335C642.07,248.019 640.998,244.211 640.642,240.904Z" style="fill:rgb(252,200,171);fill-rule:nonzero;"/>
        <path d="M600.614,89.756C599.452,86.19 598.221,82.67 597.349,79.007C596.808,76.731 596.515,74.406 596.187,72.089C599.13,66.524 599.886,60.477 599.88,54.022C599.887,54.007 599.899,53.999 599.905,53.984C602.843,46.332 600.782,38.359 598.539,30.799C597.384,26.905 593.299,22.667 589.039,22.477C589.098,22.307 588.969,22.087 588.732,22.127C580.581,23.507 573.877,26.354 569.553,33.686C566.14,39.472 562.434,48.248 566.511,54.432C566.512,54.433 566.513,54.433 566.513,54.435C566.693,61.547 568.371,68.797 572.977,74.121C572.689,80.466 570.987,86.809 570.837,93.162C570.836,93.202 570.854,93.228 570.856,93.266C570.592,93.273 570.328,93.503 570.421,93.815C574.265,106.652 576.648,119.581 579.298,132.695C580.158,136.949 583.402,160.055 591.53,157.82C594.486,157.006 594.133,153.654 594.298,151.204C594.828,143.309 595.15,135.529 597.122,127.821C600.302,115.398 606.183,103.355 601.319,90.511C601.175,90.131 600.915,89.887 600.614,89.756Z" style="fill:rgb(252,200,171);fill-rule:nonzero;"/>
        <path d="M648.527,457.028C648.523,456.471 648.249,456.092 647.877,455.888C646.556,448.768 645.705,441.674 645.668,434.356C645.629,426.506 646.595,418.743 646.255,410.878C645.682,397.614 642.903,384.6 641.679,371.403C641.842,358.381 641.342,345.334 640.49,332.384C639.346,314.994 637.489,297.301 634.528,280.008C634.775,246.655 630.545,212.998 620.593,181.302C620.862,181.118 621.055,180.823 621.044,180.388C620.986,178.218 620.916,176.025 620.787,173.842C621.343,170.881 622.253,168.211 623.69,165.541C624.412,164.2 625.927,162.837 626.246,161.293C627.269,156.332 626.086,150.858 625.516,145.89C624.882,140.358 624.738,134.999 625.044,129.443C625.208,126.459 624.469,124.07 623.294,121.723C621.485,114.136 618.672,107.012 614.79,100.236C611.755,94.939 607.664,88.557 601.967,85.713C601.904,85.434 601.849,85.153 601.783,84.874C601.332,82.981 600.521,81.031 598.795,80.12C598.797,80.101 598.797,80.083 598.799,80.065C598.837,79.736 598.443,79.697 598.259,79.891C598.198,79.869 598.146,79.836 598.083,79.816C597.853,79.743 597.712,80 597.798,80.187C597.861,80.325 597.922,80.452 597.985,80.587C596.227,85.749 596.563,91.028 596.37,96.439C596.13,103.15 594.299,109.931 593.587,116.634C592.385,127.966 591.367,139.347 590.439,150.718C587.734,142.364 585.122,133.999 582.817,125.481C579.303,112.499 576.769,98.533 571.407,86.173C571.377,86.104 571.333,86.051 571.282,86.009C571.3,85.922 571.324,85.837 571.341,85.75C571.367,85.609 571.276,85.432 571.109,85.446C569.029,85.619 568.22,89.463 567.693,91.078C567.503,91.661 567.339,92.254 567.19,92.851C565.282,94.617 563.348,96.462 561.799,98.504C559.734,101.226 559.058,104.488 558.073,107.719C555.501,116.16 552.389,124.643 550.622,133.293C549.128,140.609 550.449,148.986 551.137,156.363C551.519,160.471 553.294,163.806 555.373,167.043C556.577,170.422 558.393,174.146 561.319,175.884C561.482,178.138 561.653,180.388 561.741,182.655C557.424,187.509 552.229,191.619 548.844,197.339C546.752,200.874 545.959,205.112 544.993,209.046C543.68,214.395 542.363,219.742 541.055,225.092C538.756,234.491 537.899,243.166 539.184,252.799C540.52,262.82 542.006,272.882 544.091,282.781C543.022,294.417 540.982,306.065 539.302,317.601C535.678,342.48 531.381,367.257 526.396,391.899C523.854,403.043 521.375,414.189 520.119,425.667C518.886,436.918 517.172,448.098 515.013,459.208C513.706,465.936 525.197,462.848 528.568,462.568C528.669,462.56 528.763,462.542 528.852,462.517C528.336,465.233 528.128,467.974 529.18,469.872C530.795,472.784 533.278,473.224 536.291,472.083C538.733,471.158 542.405,466.429 545.334,470.435C545.951,471.278 546.87,472.55 548.048,472.595C549.197,472.638 549.882,472.582 550.759,471.706C552.635,469.83 551.501,462.846 558.315,468.97C561.43,471.77 565.466,472.297 569.505,471.589C572.896,470.994 576.173,470.239 579.636,470.424C581.726,470.536 584.421,470.998 586.344,469.806C587.835,468.882 588.853,467.708 589.596,466.376C592.504,467.449 595.746,469.822 598.395,470.753C603.348,472.492 608.732,471.79 613.697,470.564C616.919,469.769 619.627,468.598 620.134,465.491C625.936,469.092 633.847,469.957 640.312,469.863C643.252,469.82 645.89,469.719 648.098,467.715C650.713,465.341 648.547,459.697 648.527,457.028Z" style="fill:rgb(163,138,129);fill-rule:nonzero;"/>
        <path d="M605.59,59.901C604.444,54.199 604.718,48.582 604.25,42.826C603.902,38.546 602.732,34.285 601.541,30.177C600.09,25.173 596.063,18.631 590.214,19.673C572.395,17.959 559.261,36.351 562.702,52.909C562.712,52.957 562.74,52.984 562.754,53.028C562.646,53.86 563.282,54.781 564.332,54.469C568.336,53.277 570.985,51.068 573.503,47.791C578.752,40.96 582.499,35.694 591.586,34.579C591.586,34.934 591.823,35.298 592.257,35.298C595.079,35.302 596.875,41.344 597.711,43.34C599.068,46.582 599.417,49.848 599.618,53.32C599.816,56.733 601.016,59.808 604.259,61.209C604.997,61.528 605.566,60.982 605.524,60.394C605.594,60.26 605.63,60.097 605.59,59.901Z" style="fill:rgb(67,68,68);fill-rule:nonzero;"/>
    </g>
</svg>
