<?xml version="1.0" encoding="UTF-8" standalone="no"?>
<!DOCTYPE svg PUBLIC "-//W3C//DTD SVG 1.1//EN" "http://www.w3.org/Graphics/SVG/1.1/DTD/svg11.dtd">
<svg width="100%" height="100%" viewBox="0 0 1200 1200" version="1.1" xmlns="http://www.w3.org/2000/svg" xmlns:xlink="http://www.w3.org/1999/xlink" xml:space="preserve" xmlns:serif="http://www.serif.com/" style="fill-rule:evenodd;clip-rule:evenodd;stroke-linejoin:round;stroke-miterlimit:2;">
    <g>
        <g transform="matrix(15.5763,0,0,15.5763,0,0)">
            <circle cx="38.52" cy="38.52" r="38.52" style="fill:rgb(0,142,214);"/>
            <clipPath id="_clip1">
                <path d="M0.15,41.579C24.353,36.548 50.203,36.437 76.679,43.81L79.175,66.862L40.827,80.898L4.987,71.043C1.337,61.189 -1.442,51.432 0.15,41.579Z"/>
            </clipPath>
            <g clip-path="url(#_clip1)">
                <circle cx="38.52" cy="38.52" r="38.52" style="fill:rgb(0,190,79);"/>
            </g>
        </g>
        <g transform="matrix(0.993481,0,0,0.993481,-11.4816,-5.63742)">
            <path d="M737.607,110.765C759.017,111.96 756.256,140.496 764.279,145.287C776.99,152.879 778.044,152.336 791.151,165.023C810.872,184.112 802.763,242.658 825.076,242.427C848.623,234.584 850.891,322.177 834.568,314.377C809.487,308.229 793.954,315.916 790.964,341.776C789.98,366.44 797.118,378.18 805.234,388.364C853.952,450.514 842.558,481.43 760.442,481.934C746.263,483.018 750.563,498.129 760.404,517.445C762.579,535.436 762.394,542.983 734.543,542.865C714.821,540.457 722.182,560.322 745.518,580.623C755.038,596.557 828.121,544.047 862.508,558.94C885.583,572.315 897.103,595.162 898.602,626.224C900.795,657.276 925.022,678.016 929.107,698.223C933.068,717.819 884.352,716.253 896.529,733.429C909.231,768.712 905.241,804.271 927.401,846.478C936.824,853.106 944.283,862.094 940.542,884.54C942.343,897.344 937.431,904.079 928.092,906.81C912.623,924.334 908.842,934.13 905.747,950.592C908.1,979.739 897.18,991.924 895.539,1013.45C893.853,1038 886.081,1077.66 853.339,1085.54C809.591,1096.08 621.376,1067.5 616.328,978.073C616.836,955.233 591.487,958.75 571.213,969.056C551.717,977.431 552.7,961.769 555.979,943.411C566.81,919.139 602.408,916.751 588.471,904.354C583.224,888.564 572.68,877.751 557.479,871.315C534.352,875.365 541.865,843.497 553.932,806.289C568.974,775.815 469.659,716.965 433.208,751.338C412.924,764.809 381.299,777.087 333.667,787.682C295.236,797.385 273.59,791.699 268.055,771.242C269.014,737.965 288.411,716.004 310.958,695.977C319.107,661.146 314.053,647.305 297.396,651.911C266.271,650.272 250.342,630.98 237.008,608.672C222.173,591.454 199.945,591.93 195.552,525.55C199.529,503.602 217.506,486.747 217.161,470.168C214.633,437.999 225.815,419.189 252.807,415.783C277.167,408.444 292.469,401.432 298.336,394.76C272.887,360.778 308.54,361.928 357.232,370.575C373.375,390.057 393.102,396.658 417.732,385.64C427.16,368.921 424.939,354.328 415.034,341.137C407.062,323.331 430.457,307.627 464.089,292.608L549.396,261.882C592.675,265.336 603.63,248.777 602.18,224.538C601.001,204.837 640.914,207.282 693.419,198.486C715.358,186.104 718.431,173.067 715.349,159.816C712.62,148.995 715.213,138.286 721.318,127.652C722.229,118.014 726.841,111.66 737.607,110.765Z" style="fill:white;"/>
        </g>
        <g transform="matrix(15.002,0,0,15.002,-62.4631,14.5756)">
            <clipPath id="_clip2">
                <path d="M52.245,5.988C53.663,6.067 53.48,7.957 54.011,8.274C54.853,8.777 54.923,8.741 55.791,9.581C57.097,10.845 56.56,14.722 58.038,14.707C59.597,14.188 59.747,19.988 58.666,19.472C57.005,19.065 55.977,19.574 55.779,21.286C55.713,22.919 56.186,23.697 56.724,24.371C59.95,28.487 59.195,30.535 53.757,30.568C52.818,30.64 53.103,31.64 53.755,32.92C53.899,34.111 53.887,34.611 52.042,34.603C50.736,34.444 51.224,35.759 52.769,37.103C53.399,38.159 58.239,34.681 60.516,35.668C62.045,36.553 62.807,38.066 62.907,40.123C63.052,42.18 64.656,43.553 64.927,44.891C65.189,46.189 61.963,46.085 62.769,47.223C63.611,49.559 63.346,51.914 64.814,54.709C65.438,55.148 65.932,55.743 65.684,57.23C65.803,58.078 65.478,58.524 64.86,58.705C63.835,59.865 63.585,60.514 63.38,61.604C63.536,63.534 62.813,64.341 62.704,65.767C62.592,67.392 62.078,70.019 59.909,70.541C57.012,71.239 44.548,69.346 44.214,63.424C44.247,61.911 42.569,62.144 41.226,62.827C39.935,63.381 40,62.344 40.217,61.129C40.934,59.521 43.292,59.363 42.369,58.542C42.021,57.496 41.323,56.78 40.316,56.354C38.785,56.622 39.282,54.512 40.082,52.048C41.078,50.03 34.501,46.132 32.087,48.409C30.744,49.301 28.649,50.114 25.495,50.816C22.95,51.458 21.516,51.082 21.15,49.727C21.213,47.523 22.498,46.069 23.991,44.743C24.531,42.436 24.196,41.519 23.093,41.824C21.032,41.716 19.977,40.438 19.094,38.961C18.111,37.821 16.639,37.852 16.348,33.456C16.612,32.003 17.802,30.887 17.779,29.789C17.612,27.658 18.353,26.413 20.14,26.187C21.753,25.701 22.767,25.237 23.155,24.795C21.47,22.545 23.831,22.621 27.055,23.193C28.124,24.484 29.431,24.921 31.062,24.191C31.686,23.084 31.539,22.117 30.883,21.244C30.355,20.065 31.905,19.025 34.132,18.03L39.781,15.995C42.647,16.224 43.373,15.128 43.277,13.522C43.199,12.218 45.842,12.38 49.319,11.797C50.772,10.977 50.975,10.114 50.771,9.236C50.59,8.52 50.762,7.81 51.166,7.106C51.227,6.468 51.532,6.047 52.245,5.988Z"/>
            </clipPath>
            <g clip-path="url(#_clip2)">
                <g transform="matrix(0.0594634,0,0,0.0585148,10.6364,3.52689)">
                    <path d="M484.322,521.098C528.581,297.959 688.845,195.333 924.541,171.097C904.917,408.747 785.319,550.413 556.925,587.653C788.584,626.691 899.128,783.594 930.732,1017.29C678.125,1004.28 525.987,885.449 483.321,651.348C470.205,768.334 425.08,885.006 355.535,1001.44C207.443,758.744 145.365,499.537 352.236,188.739L352.236,188.722C431.421,299.861 473.333,410.631 484.322,521.098Z" style="fill-opacity:0.07;fill-rule:nonzero;"/>
                </g>
            </g>
        </g>
    </g>
</svg>
